<svg version="1.0" xmlns="http://www.w3.org/2000/svg" viewBox="0 0 512 512"><g stroke-width="0"><path d="M399.8 51c-18.4 3.2-32.7 19.5-33 37.7l-.1 6.2-18.5 17.3c-10.1 9.5-20.4 19.1-22.8 21.3-5.7 5.2-6.7 9.3-3.1 12.9 5.2 5.2 6.5 4.4 28.8-16.4 11.2-10.5 20.6-19 20.9-19 .3 0 1.6 1.6 3 3.6 1.3 2 4.3 5.1 6.6 6.8l4.2 3.3-50.8 54.4c-28 29.9-51.2 54.5-51.7 54.6-.4.1-2.7-2.5-5-5.7-2.4-3.3-7-8-10.3-10.4l-5.9-4.4 22.9-21.3c12.6-11.8 23.5-22.6 24.1-24 2.2-5.4-3.4-11.2-9.1-9.4-1.1.4-13.6 11.4-27.6 24.6l-25.6 24-8.1-.6c-14.6-1.2-30.2 4-41.2 13.7l-4.5 4v-54.7c0-59.3.2-57.2-5.7-62.6-5.2-4.8-6.4-4.9-59.8-4.9-54.2 0-56.3.2-63.3 5.4-7.3 5.3-8.1 7.5-31.3 78.1l-22.4 68-.3 61-.3 61-3.1 1.5c-5.5 2.8-6.8 6.8-6.8 21.3C0 413 1.1 416.7 6.5 420c2.9 1.8 4.9 2 20.8 2h17.6l3.7 7.1c15.4 29.2 53.1 40.7 83.4 25.4 11.7-5.9 21.6-15.8 27.6-27.7l2.4-4.8h136.9l2-2.6c2.8-3.5 2.6-6.9-.4-9.9l-2.4-2.5h-132v-17h179.8v16.8l-9.5.4c-8.6.3-9.8.5-11.5 2.7-2.5 3-2.4 6.2.2 9.5 2 2.5 2.3 2.6 13.5 2.6H350l2.6 5.2c16.6 32.9 58.8 44.2 90.1 24.2 7.9-5.1 16.5-14.3 20.8-22.5l3.6-6.9h17.6c15.9 0 17.9-.2 20.8-2 5.4-3.3 6.5-7.1 6.5-21.5 0-14.3-1.2-18.3-6.2-21.3-1.9-1.1-9.1-11.2-20.9-29-9.9-15-20-29.3-22.5-31.7-5.4-5.3-16.7-11.1-24.3-12.5-3.3-.6-33.5-1-76.7-1H290v-24.3c0-13.3-.3-25.1-.6-26.3-.4-1.7 9.5-12.8 52.6-59 29.3-31.3 54.1-57.8 55.1-58.9 1.9-1.9 1.9-1.5 1.9 23.8V184h-5c-4.1 0-5.6.5-7.5 2.5-5.4 5.3-1.6 12.5 6.6 12.5l4.4.1-3.7 1.9c-4.7 2.5-10.1 8.1-12.4 12.8-2.6 5.4-3 16.2-.9 21.9 4.1 10.6 14 17.3 25.8 17.3 10.9 0 19-4.7 24.1-14 3.8-6.9 3.8-11.5.2-14.6-1.5-1.3-3.5-2.4-4.5-2.4-2.8 0-6.9 3.7-7.6 7-.3 1.6-2.2 4.3-4.1 6-2.8 2.4-4.4 3-8.2 3-7.6 0-12.2-4.8-12.2-12.8 0-6.2 6.1-12.2 12.3-12.2 4.3 0 6.9-3.1 7.5-8.8l.5-5.2h4.4c5.5 0 8.1-1.3 9.4-4.7 2.2-5.7-2.4-10.3-10.1-10.3h-4v-54.7l4.3-1.3c6.5-1.9 12.2-5.6 17.6-11.6 7.1-7.8 9.5-14.5 9.6-26.4 0-8.3-.4-10.3-2.8-15.3-3.7-8.2-8.1-13.4-14.9-17.8-8-5.1-19-7.5-28-5.9zm18.5 17.8c17.2 9.2 16.7 34.2-.8 43.5-5.3 2.8-16.4 3-21.6.4-16.9-8.4-19.2-31-4.4-42.3 7.6-5.7 17.9-6.4 26.8-1.6zM177.8 246.2 178 375h-15.9l-3.3-6.3c-7.2-13.7-24.3-27.2-39.6-31.2-8.2-2.1-23.2-2.1-31.3 0-17.1 4.5-32.4 16.7-40.3 32.2L45 375H25v-47h23.3c23.1 0 23.4 0 28.5-2.6 9.4-4.6 13.9-14.3 13-27.4-.4-5.6-1.1-7.7-3.3-10.6-4.7-6.1-6.4-6.4-35.5-6.4H24.8l.4-12.3.3-12.2L46.9 191c11.7-36 22-66.5 22.8-67.8.8-1.3 2.8-3.2 4.6-4.2 3.1-1.9 5.1-2 53.2-1.8l50 .3.3 128.7zm64.4-24.1c12.6 2.7 23.3 11 29.1 22.8l3.2 6.5.3 25.8.3 25.8H193v-21.3c0-23.6 1.2-32 5.6-39.4 5.7-9.9 14.8-16.9 25.4-19.7 6.8-1.8 11.3-1.9 18.2-.5zM42 304.5v8.5H25v-17h17v8.5zm33-3.1c0 4.4-.5 6-2.6 8.5-2.4 2.9-3.1 3.1-9 3.1H57v-17h18v5.4zm132.8 18.8c-.8 1.3-4.3 7.4-7.7 13.5-3.5 6.2-6.5 11.3-6.7 11.3-.2 0-.4-6.1-.4-13.5V318h16.2l-1.4 2.2zm32.8 2.5c-1.4 2.7-8.5 15.4-15.8 28.3l-13.3 23.5-8.9.3-8.9.3 1.5-2.3c.8-1.3 8.1-14.1 16.2-28.6l14.8-26.2H243l-2.4 4.7zm34.6.5c-1.7 2.9-8.9 15.6-16 28.3l-13 23-8.6.3c-4.7.1-8.6 0-8.6-.3 0-.4 7.1-13.2 15.8-28.6l15.7-27.9h17.6l-2.9 5.2zm36.6-4.4c-.1.5-7.3 13.3-15.8 28.5L280.5 375h-8.2c-4.6 0-8.3-.3-8.3-.7 0-.4 7-13.2 15.6-28.5l15.6-27.8h8.5c4.7 0 8.3.4 8.1.8zm31.9 5.4c-2 3.5-9.1 16.2-16 28.3l-12.4 22-8.7.3c-5.4.2-8.7-.1-8.4-.7.1-.5 7.3-13.3 15.8-28.5l15.5-27.6h17.7l-3.5 6.2zm37.1-5.3c-.1.5-7.3 13.3-15.8 28.5L349.5 375h-8.2c-4.6 0-8.3-.3-8.3-.6s7.1-13.2 15.7-28.5l15.7-27.9h8.4c4.6 0 8.2.4 8 .9zm34.1 4.8c-7.2 12.9-6.6 12.3-11.7 12.3-2.6 0-7.2.7-10.2 1.5-3 .8-5.5 1.3-5.6 1.2-.1-.1 2.3-4.8 5.4-10.4l5.7-10.2 9.8-.1h9.8l-3.2 5.7zm28.9-2.1 5.2 2.6-3.1 5.6c-1.8 3.2-4.2 7.4-5.3 9.5-1.2 2-2.5 3.5-3.1 3.2-.5-.2-3.6-1.4-6.7-2.7-3.2-1.3-5.8-2.6-5.8-3 0-.4 1.6-3.5 3.6-7 7.3-12.6 6.8-12.4 15.2-8.2zm28.6 34.7c6.4 9.8 11.6 18 11.6 18.3 0 .2-3.8.4-8.5.4H467l-2.6-5.3c-1.5-2.8-5.1-8.2-8.1-11.9-5-6.3-5.3-6.9-4-9 .8-1.3 2.6-4.5 4.2-7.1 1.5-2.7 3-4.5 3.5-4 .4.4 6 8.8 12.4 18.6zM120 353.5c9.6 3.4 19.8 12.1 25.2 21.5 7.9 13.6 7.9 33.4 0 47-8.8 15.3-24.1 24.1-41.7 24.2-43.3.1-64.3-52.9-32.7-82.4 5.4-5 11.8-9 17.7-10.8 9.2-3 22.3-2.8 31.5.5zm305 0c12.3 4.4 24 16.1 28.6 28.6 12.1 33.3-15.9 68.4-51.1 63.9-18.7-2.4-34.6-15.9-40-34-3.3-11.4-1.5-27 4.3-37 5.4-9.4 15.6-18.1 25.2-21.5 9.6-3.4 23.4-3.4 33 0zm-384.3 45v8.5H15v-17h25.7v8.5zm456.3 0v8.5h-25.7v-17H497v8.5z"/><path d="M87.1 135c-1.8.4-4.9 2.4-6.8 4.3-3.1 3.1-4.1 5.6-9.9 25.8-3.5 12.3-6.4 23.6-6.4 25.1 0 3.6 3.2 6.8 6.9 6.8 5.6 0 6.7-2.1 13.4-25.5l6.2-22h55l.3 42.7.2 42.8H66.2l1.6-6.1c1.5-5.4 1.5-6.3.1-8.7-.8-1.5-2.7-3.1-4.2-3.7-6-2-10.1 3.5-12.2 16.2-.9 5.4 2.2 12.4 6.9 15.3 3.2 1.9 4.8 2 47.7 2 42.3 0 44.6-.1 47.6-2 1.8-1 4.2-3.7 5.3-6 2-3.9 2.1-5.2 1.8-50.8l-.3-46.7-2.3-3.3c-4.7-6.5-5.5-6.7-38.2-6.9-16.2-.1-31 .2-32.9.7zm47.1 135.3c-2.9 3.1-2.8 7.2.3 10.3 2.5 2.5 3 2.6 12.6 2.2 9.2-.3 10.3-.5 12-2.7 2.5-3 2.4-6.2-.2-9.5-2-2.5-2.4-2.6-12.3-2.6-9.4 0-10.4.2-12.4 2.3zm90.3-29.4c-12.1 5.6-16.9 19.8-10.9 32 3.2 6.3 8.4 10.4 15.4 12.1 14.7 3.5 29-8.2 29-23.6 0-8.1-6.7-17.7-14.7-21.1-4.6-1.9-14-1.6-18.8.6zm16 15.6c3.5 3.4 3.3 7.8-.4 11.6-3.1 3.1-5.9 3.6-9.4 1.7-5-2.6-6.2-8.6-2.6-13.2 2.8-3.6 8.9-3.7 12.4-.1zm-147 120.9c-6 2.8-8.7 5.6-11.4 11.6-3.7 8.2-1.9 19.2 4.2 25.9 3.5 3.8 11.5 7.1 17.2 7.1 5.7 0 13.7-3.3 17.2-7.1s6.3-11 6.3-16.2c.1-17.3-17.9-28.7-33.5-21.3zm15.9 15.2c5.5 5.5 1.8 14.4-5.9 14.4-4.9 0-8.5-3.6-8.5-8.5 0-7.7 8.9-11.4 14.4-5.9zm288.8-15c-14.1 7-17.5 25.7-6.9 37.3 3.5 3.8 11.5 7.1 17.2 7.1 5.7 0 13.7-3.3 17.2-7.1 6.3-6.9 8-17.8 3.9-26.4-2.8-6-5.6-8.7-11.6-11.4-6.4-2.9-13.4-2.7-19.8.5zm16.3 14.9c5.4 5.3 1.6 14.5-6 14.5-7.7 0-11.4-8.9-5.9-14.4 3.5-3.5 8.6-3.5 11.9-.1z"/></g></svg>