<svg width="512" height="512" fill="none" xmlns="http://www.w3.org/2000/svg"><circle cx="256" cy="256" r="256" fill="#fff"/><g clip-path="url(#a)" fill="#000"><path d="M466.56 149.565c-4.042-2.541-10.411-1.83-14.909-1.544-4.663.296-9.376.849-13.964 1.745-13.086 2.551-26.168 5.117-39.27 7.586-22.179 4.178-44.336 8.552-66.141 14.407-3.01 1.35-5.804 3.111-8.162 5.593-.406.428-.795.872-1.195 1.305-3.768 5.139-8.163 9.826-12.679 14.357-.129.036-2.21 2.126-2.242 2.235a2609.48 2609.48 0 0 1-3.788 3.733c-5.595 5.509-11.049 11.183-16.655 16.689-1.681 1.931-6.577 6.253-6.575 6.29-7.163 6.585-14.719 12.767-22.107 19.12-.088.07-.174.144-.256.222-9.06 7.799-17.854 15.867-25.327 25.28a3.607 3.607 0 0 0-.272.394c-3.179.437-6.354.941-9.525 1.509a3.332 3.332 0 0 0-.658-.918 7.802 7.802 0 0 0-.967-.8c-4.293-16.694-.572-34.485-1.028-51.475-.157-5.895.299-11.778.421-17.673.1-4.899.676-12.093-2.51-16.258-1.14-1.49-2.919-1.648-4.3-1.068-7.435.048-14.871.402-22.29.982 1.982-8.367-7.375-13.992-14.74-14.972-11.265-1.501-17.785 7.727-17.921 17.834-5.687.291-11.368.619-16.958 1.559-.968-.206-1.999-.033-2.766.517a59.78 59.78 0 0 0-5.146 1.298c-1.2.361-1.881 1.177-2.154 2.109-.131.115-.263.228-.388.375-22.618 26.732-51.242 47.333-76.117 71.796-1.747 2.574-3.163 5.292-3.43 8.59-1.055 11.9 1.298 23.912 3.079 35.645a188.866 188.866 0 0 1 1.578 13.511c-9.05-1.182-15.736 5.453-14.348 14.62 1.549 10.239 11.807 13.454 20.7 10.581.808-.26 1.374-.733 1.744-1.3 7.078-1.707 14.428-.86 21.66-1.364.082 6.926 3.165 14.139 7.368 19.391 4.115 5.142 9.71 8.708 16.002 10.582 12.314 3.665 26.115-1.036 32.53-12.358 3.101-5.475 4.221-11.653 3.424-17.508 18.779-.135 37.523-1.34 56.269-2.377 9.346-.518 18.631-.661 27.989-.665 7.583-.002 15.216-.261 22.662-1.733.637 11.372 5.241 20.894 16.773 25.196 10.073 3.756 22.393 1.555 31.346-4.023 7.038-4.385 11.494-11.285 12.077-19.012 13.767.457 25.736 1.934 38.737.1 1.74-.245 3.642-2.389 3.384-6.076-4.028-22.205 1.179-44.912-2.41-67.201-.23-1.435-1.134-2.152-2.19-2.325-.512-.42-1.194-.675-2.068-.632-12.703.633-25.444.661-38.187.602 13.365-19.117 25.529-39.025 35.745-60.015 21.168-11.281 44.578-17.286 67.216-24.839 9.461-3.157 18.858-5.553 28.548-7.906 4.35-1.056 8.723-2.259 12.847-3.976-.12 12.498-1.848 24.923-2.167 37.417-4.502 1.16-7.488 5.001-7.998 9.962-.594 5.77 4.293 11.433 10.121 11.556 6.014.128 10.433-4.087 10.735-10.052.223-4.359-2.56-7.913-6.349-9.176.152-14.393 2.441-28.682 2.209-43.089a33.22 33.22 0 0 0 4.241-3.189c3.461-3.082 5.464-8.203.752-11.164Zm-338.449 54.687c-1.847 5.979-3.764 11.937-5.813 17.85-3.566 10.293-7.072 21.382-14.338 29.739-4.573 5.26-10.347 7.898-16.612 9.085l-4.594-18.375c14.162-12.384 28.455-24.634 41.357-38.299Zm-45.518 41.951c1.28 5.124 2.56 10.247 3.842 15.371-1.59.126-3.2.189-4.82.193-1.143-3.975-1.91-8.057-3-12.05a931.741 931.741 0 0 1 3.978-3.514Zm-8.11 7.214c.67 2.733 1.255 5.487 1.974 8.203-3.361-.187-6.712-.521-9.96-.854 2.634-2.48 5.3-4.925 7.987-7.349Zm-18.969 72.458a3.479 3.479 0 0 0 2.045-.325c.098 2.303.173 4.645.373 6.966-1.59-2.175-3.145-4.384-4.832-6.484a5.843 5.843 0 0 1 2.414-.157Zm-6.16 7.549a7.052 7.052 0 0 1-.007-3.328c2.22 2.967 4.408 5.952 6.396 9.073-3-.337-5.485-1.998-6.39-5.745Zm8.345 5.786c-2.237-3.61-4.752-7.031-7.303-10.434a.836.836 0 0 0-.407-.301c.4-.69.94-1.274 1.589-1.723 2.369 2.892 4.456 6.007 6.73 8.973a32.62 32.62 0 0 0 .685 3.353c-.435.066-.867.106-1.294.132Zm53.209-6.535-.197.087c-1.524-2.48-3.072-4.943-4.9-7.214a23.836 23.836 0 0 1 3.054-.745c.559 2.649 1.189 5.304 2.043 7.872Zm-.42-8.114a29.508 29.508 0 0 1 4.025-.187c.054 2.402.201 4.785.545 7.15-.51.086-1.017.209-1.514.371-.367.059-.727.142-1.081.236-.823-2.468-1.436-5.02-1.975-7.57Zm-1.184 8.967c-.361.228-.713.475-1.052.739-2.767-1.943-5.627-3.751-8.454-5.621a18.461 18.461 0 0 1 4.379-2.506c1.933 2.305 3.553 4.831 5.127 7.388Zm-3.499 1.026c-2.805-1.321-5.689-2.448-8.718-3.216.441-.562.916-1.088 1.426-1.58 2.426 1.612 4.885 3.165 7.292 4.796Zm.217 1.915c-.192.233-.377.474-.556.722a41.234 41.234 0 0 0-10.605-1.953c.341-.871.748-1.683 1.213-2.443 3.481.825 6.766 2.12 9.948 3.674Zm-1.47 2.132c-.05.085-.092.175-.141.261-3.44-.344-6.901-.555-10.328-1.088.07-.315.15-.623.234-.926 3.47.137 6.921.719 10.235 1.753Zm-.892 1.819a16.022 16.022 0 0 0-.625 1.774c-.038.131-.062.26-.095.39-3.152.014-6.308-.207-9.477-.362a15.62 15.62 0 0 1 .088-2.034 2.65 2.65 0 0 0 .276-.813c3.26.496 6.554.724 9.833 1.045Zm-10.102 3.441c3.04.144 6.069.338 9.09.341a10.67 10.67 0 0 0 .077 2.82 444.413 444.413 0 0 1-7.829 2.374c-.678-1.825-1.145-3.694-1.338-5.535Zm1.96 7.062a414.66 414.66 0 0 0 7.59-2.304c.149.461.323.911.528 1.349-2.362 1.01-4.684 2.097-6.924 3.352a29.096 29.096 0 0 1-1.194-2.397Zm2.033 3.809c2.225-1.248 4.532-2.327 6.877-3.333a14.109 14.109 0 0 0 1.634 2.069 359.595 359.595 0 0 0-5.932 4.736 28.442 28.442 0 0 1-2.579-3.472Zm5.238 6.105a21.87 21.87 0 0 1-1.546-1.435 373.808 373.808 0 0 1 6.013-4.8c.512.437 1.057.844 1.623 1.224-1.668 1.948-3.273 3.955-4.958 5.892a24.83 24.83 0 0 1-1.132-.881Zm6.515 3.934a26.012 26.012 0 0 1-4.029-2.114c1.7-1.966 3.323-4.003 5.02-5.967.722.397 1.471.75 2.238 1.052-1.146 2.309-2.164 4.68-3.229 7.029Zm4.275 1.353a24.856 24.856 0 0 1-2.742-.773c1.071-2.366 2.099-4.751 3.267-7.066.348.103.697.198 1.048.282-.332 2.567-.686 5.13-1.573 7.557Zm4.578.551a23.135 23.135 0 0 1-2.971-.251c.838-2.45 1.2-4.995 1.546-7.559a17.36 17.36 0 0 0 1.562.15c-.418 2.593-.685 5.179-.137 7.66Zm-1.463-35.301c-.339-2.288-.485-4.595-.539-6.918 1.626.12 3.257.366 4.86.734a40.418 40.418 0 0 0-1.658 6.437 11.95 11.95 0 0 0-2.663-.253Zm12.327 7.319a13.641 13.641 0 0 0-1.559-2.405c.551-.71 1.117-1.41 1.692-2.101a45.977 45.977 0 0 1 1.777-2.017c.243-.26.496-.511.752-.756.105-.098.211-.192.32-.284.028-.024.398-.359.622-.611 1.527 1.226 3.038 2.799 4.143 4.346-2.785.817-5.367 2.171-7.747 3.828Zm8.684-2.371a16.907 16.907 0 0 1 1.754 4.272c-3.158-.271-6.284-.083-9.368.772a16.826 16.826 0 0 0-.398-1.159c2.44-1.731 5.117-3.103 8.012-3.885Zm-11.415-1.276c-.44-.398-.909-.762-1.41-1.077 1.192-2.046 2.424-4.06 3.911-5.896a27.014 27.014 0 0 1 2.572 1.565c-1.486.798-3.583 3.388-5.073 5.408Zm-2.865-1.828c-.05-.02-.096-.047-.147-.066-.023-.015-.046-.031-.069-.044a7.784 7.784 0 0 0-2.256-1.126 40.55 40.55 0 0 1 1.658-6.389 31.316 31.316 0 0 1 4.674 1.725c-1.453 1.848-2.669 3.861-3.86 5.9Zm-3.587 33.432c-.651-2.465-.333-5.055.106-7.641.099-.005.199-.007.297-.016.338-.026.657-.072.974-.118.627 2.459 1.336 4.896 2.063 7.328a22.48 22.48 0 0 1-3.44.447Zm5.031-.847c-.72-2.411-1.424-4.827-2.048-7.264a8.96 8.96 0 0 0 .429-.134c1.059 2.294 2.012 4.634 3.069 6.924a19.81 19.81 0 0 1-1.45.474Zm2.963-1.097c-1.061-2.279-2.008-4.612-3.057-6.9a8.196 8.196 0 0 0 1.688-.934c1.864 1.728 3.606 3.571 4.973 5.73a20.89 20.89 0 0 1-3.604 2.104Zm4.897-3.129c-1.398-2.168-3.15-4.033-5.027-5.786.959-1.012 1.699-2.254 2.218-3.642 2.569 1.083 4.867 2.67 7.105 4.328a20.608 20.608 0 0 1-4.296 5.1Zm5.078-6.546c-2.335-1.717-4.726-3.328-7.405-4.447.244-.992.393-2.03.444-3.088 3.048-.039 6.333.547 8.709 2.444a21.191 21.191 0 0 1-1.748 5.091Zm2.048-6.915c-2.574-1.715-5.914-2.3-9.008-2.259a18.268 18.268 0 0 0-.356-2.899c3.064-.848 6.169-1.016 9.311-.697.049.325.088.654.119.986.153 1.672.124 3.3-.066 4.869Zm-3.446-22.983c-9.337-7.103-22.917-9.152-33.958-5.211-6.32 2.256-11.384 6.829-13.74 12.895a55.7 55.7 0 0 0-2.18-4.042c-.54-.908-1.96-.085-1.418.829a53.895 53.895 0 0 1 2.869 5.493c-.034.132-.076.259-.108.393-.365.047-.73.084-1.095.12-1.4-2.05-2.342-4.337-3.263-6.637-.39-.971-1.977-.548-1.583.435.871 2.178 1.748 4.365 2.987 6.356-.851.055-1.703.093-2.555.119-.942-1.896-2.09-3.67-3.061-5.557-.484-.941-1.9-.112-1.418.829.836 1.624 1.842 3.155 2.696 4.769-.565.008-1.13.013-1.695.016a55.285 55.285 0 0 0-2.68-5.096c-.54-.908-1.96-.084-1.419.829a55.735 55.735 0 0 1 2.299 4.277c-.709.004-1.417.009-2.125.017-.871-1.41-1.654-2.874-2.287-4.411-.398-.964-1.986-.542-1.582.436a33.82 33.82 0 0 0 1.984 4.016c-.596.017-1.19.041-1.784.072-.796-1.108-1.15-2.328-1.17-3.788-.015-1.057-1.656-1.059-1.642 0 .02 1.45.325 2.741.958 3.911-.374.032-.747.07-1.122.11-.237-.645-.595-1.268-.887-1.854-.473-.946-1.89-.115-1.418.829.18.359.441.799.64 1.235a38.63 38.63 0 0 0-1.463.244c-.975-4.123-.924-8.543-1.137-12.743-.275-5.43-.828-10.739-1.581-16.117-1.818-12.975-5.2-26.633-3.128-39.767.028-.176.026-.34.03-.505.407-.405.825-.802 1.235-1.205.408.239.883.404 1.436.458 17.05 1.624 35.918 4.078 49.267-9.028 7.861-7.718 11.679-18.557 15.402-28.651 4.346-11.783 8.007-23.816 11.539-35.866l.58-.151c.72 14.626 1.269 29.257 1.692 43.89-.03.029-.049.06-.078.09.039.963.071 1.927.094 2.89.024.026.046.056.072.082.288 10.429.514 20.861.684 31.294-.013.014-.02.032-.033.046.002.02.012.035.012.055.009 1.347.072 2.686.003 4.021.031.045.056.093.089.135.274 18.333.392 36.669.399 55.002a25.234 25.234 0 0 0-5.357-5.564Zm40.438-152.322c4.294.277 10.496 3.486 8.394 8.526-.08.192-.135.377-.179.558-3.397.331-6.789.706-10.175 1.123-2.921.36-5.862.587-8.808.767.214-6.493 3.386-11.45 10.768-10.974Zm-31.51 19.073c8.657-1.321 17.552-1.281 26.293-2.007-8.417 8.779-16.942 17.453-25.232 26.35-.308-8.115-.656-16.231-1.061-24.343Zm1.316 31.32c10.592-11.548 21.654-22.652 32.439-34.017.034-.037.056-.075.088-.113 3.42-.393 6.849-.734 10.282-1.028-1.705 1.343-3.261 2.941-4.732 4.37-4.11 3.994-7.95 8.27-11.78 12.53-8.218 9.136-16.733 18.524-26.024 26.741-.087-2.828-.176-5.656-.273-8.483Zm28.143-12.955c3.469-3.866 6.949-7.72 10.551-11.463 2.554-2.652 5.934-7.108 9.532-8.385 1.372-.488 1.829-1.764 1.636-2.893 5.89-.381 11.788-.605 17.681-.648 1.294 3.843.542 9.32.451 12.804-.159 6.04-.411 12.026-.323 18.068.118 8.064-.577 16.242-.869 24.394-10.55 8.054-20.169 17.244-30.096 26.035-4.838-.012-9.698-.237-14.481-.228-7.049.013-14.106.376-21.046 1.576a2736.672 2736.672 0 0 0-.717-31.512c9.961-8.322 19.066-18.147 27.681-27.748Zm39.929 54.67c-1.39-.002-2.777.109-4.074.227-5.891.536-11.655 1.995-17.534 2.602-.703.073-1.412.119-2.119.172 7.338-6.622 14.6-13.365 22.339-19.509 0 5.548.328 11.066 1.388 16.508Zm-12.181 68.321c-18.332 1.004-36.094 2.176-54.455 2.355.002-1.127 1.268-1.915 2.127-2.563 1.194-.901 2.442-1.726 3.643-2.617.839-.623.022-2.048-.829-1.418-1.396 1.038-2.845 2.001-4.222 3.06-.162.123-.325.252-.49.38.008-.097.017-.194.017-.295 0-.847-.003-1.696-.004-2.545 1.398-1.569 2.984-2.968 4.273-4.639.647-.838-.78-1.655-1.417-.829-.865 1.122-1.868 2.12-2.86 3.128l-.005-2.752c1.277-1.613 2.7-3.091 4.153-4.545.75-.749-.411-1.91-1.16-1.161a67.972 67.972 0 0 0-2.997 3.179c-.004-1.404-.004-2.807-.009-4.211.857-1.003 1.692-2.027 2.618-2.969.742-.755-.418-1.916-1.16-1.16a32.285 32.285 0 0 0-1.471 1.628c-.006-1.508-.015-3.018-.023-4.526l2.654-2.653c.748-.748-.412-1.909-1.16-1.16l-1.505 1.505c-.007-1.141-.011-2.28-.017-3.42 1.99-2.142 3.865-4.423 5.392-6.898.557-.904-.864-1.726-1.418-.829-1.158 1.878-2.528 3.632-3.992 5.299-.014-1.903-.033-3.807-.05-5.709 1.915-1.996 3.607-4.179 5.331-6.34.653-.818-.501-1.988-1.161-1.16-1.376 1.726-2.728 3.469-4.191 5.116-.018-1.967-.035-3.938-.057-5.906.974-1.776 2.334-3.26 3.472-4.927.598-.875-.824-1.695-1.417-.829-.663.97-1.397 1.88-2.093 2.817l-.052-4.134a5.388 5.388 0 0 1 2.236-2.205c.938-.491.109-1.906-.829-1.417a6.661 6.661 0 0 0-1.44 1.037c-.013-.931-.021-1.864-.035-2.793 14.147-2.667 28.693-1.187 43.015-1.71 4.873-.178 9.685-1.208 14.485-1.998 1.95-.323 6.38-1.449 9.621-1.253 4.597 19.992 2.886 40.702 5.311 60.965.022.18.069.341.112.505-5.979.092-11.947.269-17.941.597Zm125.857-150.997c2.77 4.698 5.064 9.728 7.217 14.758-5.898-.441-11.71-1.471-17.498-2.685 3.656-3.832 7.163-7.81 10.281-12.073Zm-19.13 20.972c1.839 8.01 4.247 16.118 8.07 23.373-8.177-2.483-16.348-4.937-24.715-6.622 5.618-5.51 11.057-11.224 16.645-16.751Zm-25.756 25.279c3.63 8.281 8.154 16.436 13.702 23.638-10.021-3.076-19.949-6.443-29.907-9.713 5.429-4.618 10.901-9.192 16.205-13.925Zm21.154 32.684c-.66.941-1.317 1.881-1.982 2.817-9.019-.051-18.036-.089-27.04.064a3.168 3.168 0 0 0-.554-1.188c-3.202-4.415-6.55-8.948-8.905-13.915 12.787 4.202 25.528 8.549 38.481 12.222Zm-45.444-11.761c2.179 5.312 5.441 10.151 8.798 14.822-8.534.262-17.054.746-25.549 1.608 5.204-5.855 10.886-11.235 16.751-16.43Zm.247 83.976c.226-.657.488-1.289.768-1.908 3.202.866 6.282 2.104 9.386 3.267a15.7 15.7 0 0 0-.435 1.287c-.031.11-.052.218-.081.326-3.216-.475-6.347-1.373-9.475-2.303a3.696 3.696 0 0 0-.163-.669Zm18.901-7.341a10.95 10.95 0 0 0-1.621.612c-1.9-2.059-3.773-4.145-5.784-6.095a27.37 27.37 0 0 1 4.741-1.854c1.142 2.341 1.926 4.831 2.664 7.337Zm-1.039-7.76a29.255 29.255 0 0 1 2.591-.462c.326 2.546.429 5.112.866 7.628-.276.057-.55.126-.823.208-.74-2.513-1.52-5.015-2.634-7.374Zm-2.056 9.192a13.496 13.496 0 0 0-2.319 1.941c-2.413-1.823-4.738-3.774-7.446-5.147a24.283 24.283 0 0 1 3.937-2.886c2.034 1.941 3.923 4.024 5.828 6.092Zm-3.36 3.151a15.73 15.73 0 0 0-1.641 2.616c-3.078-1.149-6.132-2.38-9.297-3.262a21.825 21.825 0 0 1 3.306-4.504c2.821 1.278 5.19 3.265 7.632 5.15Zm-12.232 5.153c3.013.885 6.031 1.725 9.122 2.191a10.811 10.811 0 0 0-.061 1.528c-2.943.291-5.886.56-8.845.632a50.553 50.553 0 0 1-.216-4.351Zm1.015 8.834a24.443 24.443 0 0 1-.594-2.849c2.949-.082 5.882-.353 8.816-.642.073.396.167.788.284 1.17-2.853.688-5.661 1.569-8.506 2.321Zm.51 1.559c2.866-.77 5.7-1.674 8.585-2.356.407.866.925 1.683 1.525 2.448-2.444 1.612-4.945 3.171-7.625 4.337-1.103-1.362-1.902-2.856-2.485-4.429Zm3.659 5.698c2.639-1.21 5.117-2.763 7.545-4.365.121.122.24.248.366.366-1.871 1.981-3.462 4.239-5.501 6.033a19.372 19.372 0 0 1-2.41-2.034Zm3.825 2.938c1.92-1.808 3.487-3.97 5.325-5.874.427.334.875.647 1.336.942-1.351 2.045-2.46 4.242-3.762 6.331-1-.395-1.972-.855-2.899-1.399Zm4.481 1.951c1.219-2.013 2.273-4.121 3.58-6.069.791.417 1.613.779 2.451 1.081-.607 1.968-1.257 3.916-2.04 5.814a21.697 21.697 0 0 1-3.991-.826Zm5.705.964c.713-1.788 1.319-3.615 1.892-5.459a17.66 17.66 0 0 0 3.387.571c.27 1.565.447 3.134.45 4.715a35.579 35.579 0 0 1-5.729.173Zm5.558-32.434a11.452 11.452 0 0 0-2.028-.056c-.454-2.495-.558-5.053-.867-7.581a29.734 29.734 0 0 1 3.352-.08c.092 2.558-.368 5.156-.457 7.717Zm1.785 32.041c-.017-1.496-.171-2.983-.412-4.469.195-.008.391-.014.584-.029a13.773 13.773 0 0 0 2.279-.369c.798 1.221 1.416 2.538 1.972 3.89a34.51 34.51 0 0 1-4.423.977Zm-.214-31.768c.016-2.603.496-5.273.477-7.892.666.057 1.329.134 1.99.238-.271 2.676-.729 5.319-1.221 7.959a7.278 7.278 0 0 0-1.246-.305Zm16.584 1.026c-2.388 2.056-5.09 3.675-7.678 5.454a13.317 13.317 0 0 0-.655-1.056c2.001-2.356 4.042-4.678 5.788-7.235a.776.776 0 0 0 .138-.373 22.04 22.04 0 0 1 2.73 3.035.843.843 0 0 0-.323.175Zm1.161 1.16c.021-.018.027-.041.047-.061 1.247 1.949 2.169 4.081 2.684 6.289.222.746.564 1.156-.57 1.093-3.019-.362-6.246.704-9.411 1.086-.222-.911-.51-1.8-.872-2.649 2.719-1.901 5.596-3.583 8.122-5.758Zm-5.124-4.828c-1.628 2.385-3.526 4.559-5.398 6.753a11.25 11.25 0 0 0-1.062-1.022c1.31-2.762 2.71-5.48 3.586-8.429 1.239.66 2.41 1.445 3.493 2.336a.8.8 0 0 0-.619.362Zm-7.795 4.772a9.483 9.483 0 0 0-1.404-.702l-.07-.045c-.191-.137-.387-.25-.58-.366.517-2.777 1.007-5.556 1.304-8.367a28.55 28.55 0 0 1 1.887.468c.782.224 1.543.509 2.287.83-.813 2.865-2.143 5.51-3.424 8.182Zm1.369 28.153c-.564-1.364-1.177-2.676-1.941-3.918.163-.069.333-.131.49-.206 1.381-.525 2.523-1.382 3.441-2.463 1.584.971 3.138 2.065 4.415 3.391-1.953 1.333-4.12 2.396-6.405 3.196Zm7.721-4.162c-1.386-1.468-3.058-2.684-4.782-3.759a12.37 12.37 0 0 0 1.231-2.831c2.537.639 4.976 1.525 7.288 2.746a20.16 20.16 0 0 1-3.737 3.844Zm4.664-5.213c-2.477-1.331-5.106-2.292-7.837-2.973.092-.508.156-1.028.201-1.553 3.152-.342 6.307-.406 9.416.369a16.26 16.26 0 0 1-1.78 4.157Zm2.137-5.762c-3.204-.791-6.457-.746-9.707-.408a18.623 18.623 0 0 0-.189-2.445 40.93 40.93 0 0 0 2.001-.249c2.124-.313 4.689-1.06 6.974-.845 1.473.047 1.319 1.014 1.125 2.037-.03.639-.099 1.275-.204 1.91Zm40.337-70.64c.461 3.333.725 6.675.876 10.019-1.08-1.188-2.246-2.297-3.602-3.235-.873-.603-1.692.82-.83 1.418 1.763 1.221 3.195 2.769 4.531 4.407.037 1.316.058 2.631.064 3.948a43.43 43.43 0 0 1-1.408-1.733c-.633-.829-2.06-.014-1.418.829.891 1.167 1.86 2.27 2.821 3.376a300.801 300.801 0 0 1-.067 4.749c-.845-.964-1.692-1.929-2.498-2.925-.666-.823-1.819.345-1.16 1.16 1.153 1.426 2.393 2.785 3.595 4.173-.057 2.045-.12 4.089-.183 6.136-.872-1.112-1.777-2.2-2.768-3.209-.742-.756-1.902.405-1.16 1.16 1.41 1.435 2.643 3.025 3.851 4.63-.037 1.29-.068 2.581-.093 3.871-.707-.72-1.436-1.42-2.248-2.045-.838-.646-1.655.781-.828 1.418 1.121.865 2.091 1.89 3.041 2.93a225.145 225.145 0 0 0-.005 5.389c-.883-1.02-1.714-2.086-2.431-3.249-.554-.898-1.972-.074-1.417.829 1.109 1.797 2.462 3.387 3.898 4.91.047 1.723.126 3.444.239 5.165-.599-.773-1.21-1.535-1.816-2.294-.662-.828-1.815.343-1.161 1.161 1.114 1.392 2.241 2.795 3.229 4.285.196 2.096.436 4.189.772 6.28-.47.056-.941.102-1.411.15-1.392-2.149-2.927-4.192-4.528-6.197-.659-.828-1.812.342-1.16 1.16 1.35 1.69 2.65 3.406 3.847 5.2-1.398.107-2.797.18-4.2.22l-4.036-5.382c-.628-.837-2.052-.019-1.418.828 1.148 1.531 2.297 3.061 3.444 4.592a124.38 124.38 0 0 1-3.862-.023c-1.388-2.273-2.834-4.496-4.488-6.594-.655-.832-1.808.339-1.16 1.161 1.35 1.712 2.546 3.527 3.691 5.376-1.46-.051-2.923-.118-4.385-.197-1.051-1.548-2.068-3.121-3.18-4.626-.623-.84-2.047-.022-1.418.829.887 1.199 1.711 2.442 2.543 3.679-.963-.057-1.925-.118-2.886-.178-.913-1.477-1.855-2.933-2.887-4.33-.621-.84-2.046-.023-1.418.829a57.717 57.717 0 0 1 2.289 3.372l-1.836-.116c-1.045-1.541-2.058-3.103-3.164-4.601-.622-.84-2.046-.023-1.417.829.879 1.19 1.698 2.422 2.521 3.651-.42-.024-.837-.049-1.257-.071-1.131-1.752-2.128-3.578-3.589-5.091-.736-.762-1.897.399-1.16 1.161 1.106 1.144 1.919 2.489 2.75 3.829-.722-.033-1.445-.062-2.165-.087a24.7 24.7 0 0 0-.422-1.761c-3.97-14.04-17.827-21.314-31.796-20.14-11.278.946-21.671 7.334-26.392 17.473a45.133 45.133 0 0 0-1.598-2.373c-.62-.842-2.045-.025-1.418.829.804 1.092 1.522 2.24 2.248 3.383-.031.083-.071.158-.101.242-.953.216-1.909.403-2.866.573-1.427-1.497-2.722-3.087-3.542-5.027-.411-.973-1.824-.134-1.417.829.717 1.696 1.796 3.151 3.006 4.504a81.547 81.547 0 0 1-3.968.494c-1.604-1.641-3.122-3.341-4.332-5.311-.553-.9-1.973-.076-1.417.829 1.043 1.695 2.3 3.21 3.646 4.655-.601.046-1.203.09-1.804.124a.887.887 0 0 0-.204-.223c-1.931-1.49-3.414-3.447-4.868-5.384-.627-.836-2.052-.018-1.417.829 1.302 1.735 2.618 3.429 4.196 4.893-.982.039-1.966.067-2.949.086-1.442-1.897-2.925-3.755-4.604-5.457-.744-.754-1.904.407-1.16 1.16 1.344 1.363 2.562 2.824 3.734 4.328-.677.009-1.353.017-2.03.019-.82-1.097-1.71-2.143-2.48-3.278-.592-.869-2.014-.05-1.418.829.577.849 1.22 1.648 1.852 2.454l-.375.002c-.706 0-1.41.009-2.115.011 0-.146.01-.287-.009-.445-2.26-18.885-1.086-38.105-4.36-56.849 26.334-5.052 53.053-4.997 79.779-4.802.994.497 2.233.587 3.285.024 13.837.095 27.663.178 41.432-.446Zm-38.344-14.763c-8.159-8.162-14.537-18.683-19.207-29.359 11.032 2.006 21.724 5.665 32.453 8.883a495.945 495.945 0 0 1-13.246 20.476Zm17.173-27.02c-5.612-7.997-8.45-18.212-10.547-27.865 7.88 1.681 15.806 3.106 23.876 3.343a401.365 401.365 0 0 1-13.329 24.522Zm7.718-50.103a550.857 550.857 0 0 1 15.71-3.962c-3.345 5.921-6.542 11.846-8.546 18.261-2.126-4.9-4.414-9.76-7.164-14.299Zm12.662 18.52c1.637-6.786 5.129-12.989 8.626-19.053 3.041 3.658 5.718 7.607 8.616 11.388-5.86 2.299-11.627 4.827-17.242 7.665Zm20.048-14.819c-2.447-3.345-4.872-6.708-7.589-9.834 4.167-.93 8.34-1.829 12.521-2.696-1.7 4.121-2.735 8.689-4.932 12.53Zm6.961 3.535c-.658.229-1.314.468-1.969.702 2.156-3.632 3.316-7.684 4.852-11.646 2.332 2.486 4.535 5.095 6.917 7.534a2387.637 2387.637 0 0 0-9.8 3.41Zm14.247-8.251c-2.963-3.061-5.663-6.374-8.701-9.364a1693.344 1693.344 0 0 1 15.615-3.04c-2.19 4.207-4.042 8.706-6.914 12.404Zm7.301.848c2.018-3.357 3.632-6.997 5.514-10.446 2.133 2.213 4.264 4.425 6.475 6.558a677.976 677.976 0 0 0-11.989 3.888Zm15.844-9.288c-1.977-1.94-3.896-3.941-5.82-5.936l1.585-.299c2.476-.464 4.956-.971 7.442-1.492-1.082 2.57-2.107 5.166-3.207 7.727Zm6.062 2.386c1.158-2.751 2.252-5.527 3.44-8.263 2.286 1.796 4.832 3.907 7.462 5.235a409.058 409.058 0 0 0-10.902 3.028Zm15.933-8.306c-.947.588-5.314-2.924-6.076-3.454-.382-.265-.757-.54-1.131-.814 4.223-.882 8.461-1.715 12.709-2.404-1.533 2.584-3.057 5.155-5.502 6.672Zm7.195 2.29c1.855-2.367 3.289-5.288 5.076-7.701 1.441 1.716 2.9 3.431 4.06 5.311-3.032.972-6.155 1.708-9.136 2.39Zm15.325 54.586c-4.238-.619-4.723-5.483-2.241-7.692 6.666-.526 6.844 8.363 2.241 7.692Zm6.501-64.105c-1.391 1.436-2.989 2.638-4.718 3.665-.333.115-.64.288-.914.503-.301.165-.597.339-.906.494-1.109-2.024-2.592-3.833-4.096-5.623a101.23 101.23 0 0 1 4.769-.219c2.135-.041 4.309-.008 6.394.485a4.491 4.491 0 0 1-.529.695Z"/><path d="M211.08 280.44c-5.222.646-10.453 1.213-15.72 1.258-4.231.036-4.235 6.6 0 6.564 5.267-.046 10.498-.611 15.72-1.258 4.145-.512 4.195-7.084 0-6.564ZM152.339 171.149c3.228 2.689 7.898-1.93 4.642-4.643l-10.473-8.727c-3.228-2.689-7.898 1.929-4.642 4.642l10.473 8.728ZM162.813 163.002c3.216 2.708 7.884-1.912 4.642-4.642a81.856 81.856 0 0 1-9.892-9.891c-2.73-3.242-7.35 1.427-4.642 4.642a81.64 81.64 0 0 0 9.892 9.891ZM186.918 158.644c1.22-5.192 3.136-10.144 5.488-14.925 1.861-3.783-3.8-7.112-5.669-3.312-2.593 5.276-4.802 10.76-6.148 16.493-.969 4.117 5.36 5.865 6.329 1.744ZM195.314 165.247l6.982-12.219c2.103-3.681-3.57-6.987-5.669-3.313l-6.982 12.218c-2.104 3.682 3.569 6.988 5.669 3.314Z"/></g><defs><clipPath id="a"><path fill="#fff" transform="translate(42.666 42.667)" d="M0 0h426.667v426.667H0z"/></clipPath></defs></svg>