<svg width="512" height="512" fill="none" xmlns="http://www.w3.org/2000/svg"><circle cx="256" cy="256" r="256" fill="#fff"/><path d="m182.407 189.407-83.578-33.891a11.389 11.389 0 0 1-1.661-20.353 11.392 11.392 0 0 1 8.129-1.397l87 17.063-9.89 38.578Z" fill="#737EC5"/><path d="m254.125 226.297-93.375 11.906v-71.812a26.439 26.439 0 0 1 49.125-13.641l44.25 73.547Z" fill="#B3D2F1"/><path d="M174.813 193.532v23.437a4.687 4.687 0 0 0 5.39 4.688l43.453-5.532a4.682 4.682 0 0 0 3.797-2.616 4.687 4.687 0 0 0-.281-4.602l-10.641-17.719a4.68 4.68 0 0 0-4.125-2.297h-32.812a4.7 4.7 0 0 0-3.359 1.323 4.69 4.69 0 0 0-1.422 3.318Z" fill="#DBEBFF"/><path d="M268.657 224.422v21.985L45.064 275.094a12.376 12.376 0 0 0-10.782 12.234v-22.125a12.377 12.377 0 0 1 10.782-12.234l223.593-28.547Z" fill="#737EC5"/><path d="M103.751 255.078a10.92 10.92 0 0 0 12.281 10.641l85.219-10.875a10.92 10.92 0 0 0-2.766-21.656l-85.218 11.062a10.922 10.922 0 0 0-9.516 10.828Z" fill="#8293E8"/><path d="M249.813 231.453v11.391a5.304 5.304 0 0 0 1.888 4.036 5.287 5.287 0 0 0 2.021 1.057c.742.202 1.52.24 2.278.11l12.891-1.64v-21.985l-14.062 1.828a5.251 5.251 0 0 0-5.016 5.203Z" fill="#5A56B1"/><path d="m45.063 275.094 223.594-28.687v69.75a15.424 15.424 0 0 1-15.422 15.187H46.563a12.33 12.33 0 0 1-12.328-12.141v-32.015a12.33 12.33 0 0 1 10.828-12.094Z" fill="#9BB0E3"/><path d="M268.657 311.422v4.688a15.375 15.375 0 0 1-15.422 15.234H46.563a12.33 12.33 0 0 1-12.328-12.141v-7.781h234.422Z" fill="#7D97E3"/><path d="M245.641 331.344H141.626l21.984-45.281a15.985 15.985 0 0 1 14.391-9.047h56.25a11.486 11.486 0 0 1 11.437 11.437l-.047 42.891Z" fill="#5F6AB1"/><path d="m447.578 224.61-53.812-6.281a8.399 8.399 0 0 1-7.125-6.282l-17.625-70.031a13.501 13.501 0 0 0-13.078-10.219h-73.875a13.407 13.407 0 0 0-13.406 13.407v172.921a13.405 13.405 0 0 0 13.406 13.219h172.078a10.646 10.646 0 0 0 10.64-11.109L460.984 239a15.185 15.185 0 0 0-13.406-14.39Z" fill="#619AFF"/><path d="M268.657 318.125a13.405 13.405 0 0 0 13.406 13.219h172.078a10.65 10.65 0 0 0 9.969-6.893c.507-1.346.735-2.78.672-4.216l-.516-10.969H277.282a8.633 8.633 0 0 0-6.183 2.608 8.62 8.62 0 0 0-2.442 6.251Z" fill="#576DF5"/><path d="m448.187 262.391-.75-16.406a8.68 8.68 0 0 0-2.313-5.46 8.677 8.677 0 0 0-5.281-2.697l-47.906-5.531a7.55 7.55 0 0 0-7.982 4.201 7.537 7.537 0 0 0-.736 3.112v23.109a7.452 7.452 0 0 0 7.546 7.687h49.782a7.453 7.453 0 0 0 7.64-8.015Z" fill="#7AB8FF"/><path d="M353.688 153.219a4.687 4.687 0 0 0-4.687-3.656h-56.484a4.687 4.687 0 0 0-4.688 4.687v147.563a7.743 7.743 0 0 0 2.282 5.485 7.73 7.73 0 0 0 5.499 2.249h30.094a7.593 7.593 0 0 0 6.984-4.687 65.626 65.626 0 0 1 30.703-31.828 7.6 7.6 0 0 0 4.172-6.844c-.187-69.328 2.25-49.219-13.875-112.969Z" fill="#5A56B1"/><path d="M326.032 278.047c12.843-14.484 17.906-13.219 17.906-17.672v-4.687a4.128 4.128 0 0 0-4.125-4.125h-24.609a4.171 4.171 0 0 0-4.125 4.125v19.781a4.126 4.126 0 0 0 4.125 4.078c8.437-.14 9.281.235 10.828-1.5Z" fill="#5A74CF"/><path d="M365.548 200.704c-1.735-7.5-4.688-19.36-11.86-47.485a4.687 4.687 0 0 0-4.687-3.703h-56.484a4.687 4.687 0 0 0-4.688 4.688v49.875a8.766 8.766 0 0 0 8.766 8.765h59.015a10.178 10.178 0 0 0 7.829-3.729 10.175 10.175 0 0 0 2.109-8.411Z" fill="#D1EBF6"/><path d="M341.688 177.922a2.95 2.95 0 0 0 2.859-3.703l-1.359-5.531a7.076 7.076 0 0 0-6.844-5.297h-27.562a7.077 7.077 0 0 0-7.078 7.031v4.688a3.003 3.003 0 0 0 2.953 2.953l37.031-.141Zm3.375 6.703h-40.406a2.999 2.999 0 0 0-2.953 3v4.079a7.127 7.127 0 0 0 7.078 7.078h32.812a7.075 7.075 0 0 0 5.549-2.723 7.068 7.068 0 0 0 1.295-6.043c-.281-.984-.516-2.016-.797-3.141a2.996 2.996 0 0 0-2.578-2.25Z" fill="#fff"/><path d="M110.266 379.063c26.251 0 47.531-21.281 47.531-47.532 0-26.25-21.28-47.531-47.531-47.531-26.25 0-47.531 21.281-47.531 47.531 0 26.251 21.28 47.532 47.531 47.532Z" fill="#464669"/><path d="M110.266 349.813a18.279 18.279 0 0 1-16.904-11.211 18.28 18.28 0 1 1 35.138-7.258 18.311 18.311 0 0 1-5.285 13.018 18.33 18.33 0 0 1-12.949 5.451Z" fill="#737EC5"/><path d="M391.938 379.063c26.251 0 47.532-21.281 47.532-47.532 0-26.25-21.281-47.531-47.532-47.531-26.25 0-47.531 21.281-47.531 47.531 0 26.251 21.281 47.532 47.531 47.532Z" fill="#464669"/><path d="M391.937 349.813a18.284 18.284 0 0 1-17.942-21.78 18.277 18.277 0 0 1 14.262-14.408 18.282 18.282 0 0 1 21.962 17.719 18.325 18.325 0 0 1-11.249 17.047 18.344 18.344 0 0 1-7.033 1.422Z" fill="#737EC5"/><path d="M466.891 309.547H447.11a7.641 7.641 0 0 0-7.641 7.641v6.703a7.64 7.64 0 0 0 7.641 7.64h19.781a7.64 7.64 0 0 0 7.641-7.64v-6.703a7.641 7.641 0 0 0-7.641-7.641Z" fill="#D1EBF6"/><path d="M187.891 181.016c6.42 0 11.625-5.205 11.625-11.625s-5.205-11.625-11.625-11.625c-6.421 0-11.625 5.205-11.625 11.625s5.204 11.625 11.625 11.625ZM90.063 199.86a9.422 9.422 0 0 0 9.422-9.422 9.422 9.422 0 0 0-9.422-9.422 9.422 9.422 0 0 0-9.422 9.422 9.422 9.422 0 0 0 9.422 9.422Z" fill="#737EC5"/><path d="M395.501 131.797h14.062a9.375 9.375 0 0 1 9.375 9.375v22.219a8.15 8.15 0 0 1-5.11 7.52 8.14 8.14 0 0 1-3.14.589h-5.343a9.799 9.799 0 0 1-9.797-9.796v-29.907h-.047Z" fill="#619AFF"/><path d="M366.86 278.375a12.283 12.283 0 0 0 6.797-11.062c0-67.828 2.437-50.859-13.266-112.5a11.71 11.71 0 0 0-1.828-5.062 9.372 9.372 0 0 0-7.969-4.313H294.11a9.376 9.376 0 0 0-9.375 9.375V302.75a12.425 12.425 0 0 0 12.422 12.422h30.094a12.328 12.328 0 0 0 11.156-7.265 60.937 60.937 0 0 1 28.453-29.532Zm-16.031-123.281c2.25 9.094 11.718 46.313 11.718 47.485a5.422 5.422 0 0 1-1.11 4.508 5.43 5.43 0 0 1-4.187 2.007h-59.062a3.985 3.985 0 0 1-3.984-3.844v-50.296l56.625.14Zm-21 148.969a2.908 2.908 0 0 1-2.719 1.734h-30.094a3.047 3.047 0 0 1-3.047-3.047v-84.89c3 .844-1.125.609 63.281.609a14.059 14.059 0 0 0 6.891-1.781v50.625a2.91 2.91 0 0 1-1.547 2.672 69.838 69.838 0 0 0-32.765 34.078ZM111.86 309.5a22.969 22.969 0 1 0 0 45.938 22.969 22.969 0 0 0 0-45.938Zm0 36.563a13.597 13.597 0 0 1-9.612-23.206 13.598 13.598 0 0 1 14.814-2.947 13.594 13.594 0 0 1 8.392 12.559 13.64 13.64 0 0 1-13.594 13.594ZM393.579 309.5a22.973 22.973 0 0 0-21.254 14.147 22.964 22.964 0 0 0 4.949 25.047 22.967 22.967 0 0 0 39.226-16.225 22.969 22.969 0 0 0-22.921-22.969Zm0 36.563a13.594 13.594 0 1 1 13.546-13.594 13.686 13.686 0 0 1-13.546 13.594Z" fill="#302D3D"/><path d="M320.782 225.641h-13.688a4.687 4.687 0 0 0 0 9.375h13.688a4.687 4.687 0 0 0 0-9.375Z" fill="#302D3D"/><path d="M470.359 305.938c-3-64.594 0-3.75-3.093-66.188A19.827 19.827 0 0 0 449.687 221l-53.765-6.375a3.842 3.842 0 0 1-3.141-2.765c-19.218-76.547-17.672-71.438-19.312-74.438h18.75v25.172a14.469 14.469 0 0 0 1.111 5.612 14.476 14.476 0 0 0 13.608 8.919h5.203a12.856 12.856 0 0 0 9.082-3.761 12.853 12.853 0 0 0 3.761-9.082v-22.219c0-3.73-1.481-7.306-4.118-9.944a14.064 14.064 0 0 0-9.944-4.118H283.657a18.141 18.141 0 0 0-18.282 18.14v75l-7.406.937-42.656-70.921a31.066 31.066 0 0 0-33.53-14.307 31.06 31.06 0 0 0-11.704 5.401l-62.297-12.141a16.029 16.029 0 0 0-18.754 19.51 16.029 16.029 0 0 0 5.723 8.849l-6.563 19.219a14.06 14.06 0 0 0-11.264 15.541 14.063 14.063 0 0 0 14.733 12.303 7.591 7.591 0 0 1 5.243 12.995 7.592 7.592 0 0 1-12.93-5.402 4.686 4.686 0 0 0-4.688-4.687c-9.375 0-4.078 21.609 12.234 21.609a16.92 16.92 0 0 0 11.11-29.953 14.065 14.065 0 0 0 3.375-8.719 14.065 14.065 0 0 0-8.016-12.75l5.25-16.031c5.531 2.297-20.016-8.062 54.422 22.078v50.344L46.001 249.078a17.018 17.018 0 0 0-15 17.063v54a17.015 17.015 0 0 0 16.968 17.015h11.72a52.219 52.219 0 0 0 104.015 0h90.937a20.147 20.147 0 0 0 14.859-6.562 18.335 18.335 0 0 0 14.063 6.562h57.984a52.174 52.174 0 0 0 51.984 47.753 52.17 52.17 0 0 0 51.985-47.753h23.062a12.268 12.268 0 0 0 8.792-3.563 12.272 12.272 0 0 0 3.63-8.765v-6.703a12.328 12.328 0 0 0-10.641-12.187Zm-54.75-164.062v22.218a3.413 3.413 0 0 1-1.001 2.467 3.432 3.432 0 0 1-2.467 1.002h-5.203a5.109 5.109 0 0 1-5.11-4.969v-25.218h9.375a4.684 4.684 0 0 1 4.406 4.687v-.187ZM91.657 196.11a4.688 4.688 0 0 1 0-9.375 4.688 4.688 0 0 1 0 9.375Zm11.016-43.828a6.748 6.748 0 0 1-4.455-7.425 6.752 6.752 0 0 1 6.517-5.7c.891 0-2.719-.61 57.984 11.297-5.765 8.718-5.156 16.312-5.156 24.187l-54.89-22.359Zm64.265 15a21.8 21.8 0 0 1 15.957-20.979 21.798 21.798 0 0 1 24.496 9.729l40.594 67.5-81.047 10.218v-66.468ZM40.376 266.141a7.64 7.64 0 0 1 6.656-7.594l218.343-27.844v12.516c-235.64 30.094-221.015 27.797-225 29.719v-6.797Zm71.484 109.172a42.841 42.841 0 0 1-39.582-26.449 42.841 42.841 0 0 1 9.287-46.69 42.844 42.844 0 0 1 73.139 30.295 42.984 42.984 0 0 1-42.844 42.844Zm52.031-47.532a53.117 53.117 0 0 0-4.687-17.39l10.265-21.235a11.197 11.197 0 0 1 10.172-6.374h56.25a6.747 6.747 0 0 1 6.75 6.703v38.203l-78.75.093Zm90.937 0h-2.906v-38.203a16.072 16.072 0 0 0-9.957-14.867 16.072 16.072 0 0 0-6.168-1.211h-56.25a20.68 20.68 0 0 0-18.75 11.625l-7.453 15.703a52.167 52.167 0 0 0-81.751-1.587 52.17 52.17 0 0 0-11.717 28.54H48.157a7.583 7.583 0 0 1-5.508-2.173 7.589 7.589 0 0 1-2.273-5.467v-32.016a7.404 7.404 0 0 1 1.875-5.015 6.977 6.977 0 0 1 1.5-1.36c2.203-1.5-11.672.703 221.577-29.062v64.593a10.733 10.733 0 0 1-10.5 10.5Zm19.922-8.718V146.141a8.766 8.766 0 0 1 8.719-8.765h73.922a8.667 8.667 0 0 1 8.484 6.656l17.813 70.125a13.122 13.122 0 0 0 11.156 9.796l53.812 6.235a10.499 10.499 0 0 1 9.375 9.984s.656 14.344.703 14.391c-4.687-2.719-1.359-1.735-60.937-8.719a4.723 4.723 0 0 0-5.25 4.125 4.723 4.723 0 0 0 4.125 5.25l53.812 6.281a11.113 11.113 0 0 1 9.047 10.688c0 .469-.234-4.688 1.547 33.656h-12.375a12.185 12.185 0 0 0-8.437 3.375 52.224 52.224 0 0 0-56.448-27.944 52.219 52.219 0 0 0-42.271 46.694h-57.89a8.705 8.705 0 0 1-6.355-2.552 8.727 8.727 0 0 1-2.552-6.354Zm118.641 56.25a42.848 42.848 0 0 1-39.616-26.416 42.843 42.843 0 1 1 82.413-16.428 42.988 42.988 0 0 1-42.61 42.844h-.187Zm78.234-50.485a2.953 2.953 0 0 1-2.859 2.953h-20.063a2.953 2.953 0 0 1-2.953-2.953v-6.703a2.953 2.953 0 0 1 2.953-2.953h19.875a2.953 2.953 0 0 1 2.859 2.953l.188 6.703Z" fill="#302D3D"/><path d="M219.39 300.594h-32.015a4.69 4.69 0 0 0-3.315 8.002 4.69 4.69 0 0 0 3.315 1.373h32.015a4.687 4.687 0 1 0 0-9.375Zm-34.406-145.828a16.223 16.223 0 0 0-11.631 13.033 16.224 16.224 0 0 0 6.944 16.029 16.587 16.587 0 0 0 9.14 2.766 16.267 16.267 0 0 0 15.659-11.713 16.26 16.26 0 0 0-1.976-13.414 16.27 16.27 0 0 0-18.37-6.701h.234Zm7.36 21.891a6.934 6.934 0 0 1-5.267.575 6.934 6.934 0 0 1-4.132-3.318 6.912 6.912 0 0 1 .673-7.662 6.917 6.917 0 0 1 7.337-2.311 6.923 6.923 0 0 1 1.389 12.716Z" fill="#302D3D"/></svg>