<svg width="373" height="256" fill="none" xmlns="http://www.w3.org/2000/svg"><mask id="a" fill="#fff"><path fill-rule="evenodd" clip-rule="evenodd" d="M109.012 1.178C98.919 3.345 86.951 11.193 81.43 19.26c-1.115 1.63-5.018 9.508-8.674 17.507-3.655 7.998-8.363 17.092-10.463 20.207l-3.817 5.665-.364-6.275c-.333-5.76-.531-6.42-2.404-8.029-2.022-1.737-2.18-1.752-18.052-1.752H21.644l-2.126 2.125-2.125 2.126V61.03c0 13.672-.306 13.314 13.774 16.16 5.756 1.164 10.596 2.248 10.758 2.41.309.309-2.688 2.84-17.043 14.39-12.347 9.936-17.634 17.425-22.484 31.852L.32 132.023l-.224 53.684c-.256 61.136-.416 59.163 5.268 64.847C10.551 255.741 12.23 256 40.661 256c28.42 0 30.112-.26 35.285-5.435 3.999-3.997 5.435-8.554 5.435-17.239v-6.412h209.416v6.412c0 8.685 1.436 13.242 5.434 17.239 5.174 5.175 6.866 5.435 35.286 5.435 28.419 0 30.111-.26 35.285-5.435 5.578-5.578 5.435-3.955 5.429-61.412-.003-30.968-.295-52.419-.751-55.312-1.621-10.278-6.944-22.222-13.431-30.139-1.537-1.876-8.485-8.001-15.439-13.613-6.955-5.61-12.514-10.332-12.354-10.492.16-.16 4.999-1.243 10.754-2.406 14.08-2.847 13.775-2.489 13.775-16.16V50.834l-2.125-2.126-2.126-2.125h-16.012c-15.871 0-16.031.015-18.053 1.752-1.872 1.609-2.07 2.27-2.404 8.029l-.363 6.275-3.817-5.665c-2.1-3.115-6.808-12.209-10.464-20.207-3.655-7.999-7.558-15.877-8.674-17.507-5.617-8.21-17.548-15.948-27.945-18.124-7.366-1.54-146.596-1.504-153.79.04Zm158.896 13.354c3.392 1.663 6.647 4.073 9.822 7.272 4.383 4.416 5.187 5.76 10.466 17.509 3.144 6.998 6.519 14.115 7.5 15.815l1.783 3.09H74.775l1.763-3.09c.97-1.7 4.33-8.79 7.468-15.756 4.431-9.84 6.48-13.515 9.184-16.472 4.072-4.456 9.033-7.805 14.475-9.773 3.766-1.361 6.344-1.402 79.531-1.244l75.637.162 5.075 2.487ZM46.478 63.308c0 3.587-.268 5.09-.909 5.09-.5 0-4.426-.7-8.725-1.555l-7.817-1.557v-7.068h17.451v5.09Zm296.673-1.556v3.534l-7.817 1.557c-4.299.856-8.225 1.556-8.726 1.556-.64 0-.908-1.504-.908-5.09v-5.09h17.451v3.533Zm-33.257 13.819c4.237 5.061 8.639 9.322 17.259 16.705 1.4 1.198 2.381 2.317 2.181 2.486-.199.17-9.535 3.965-20.747 8.436l-20.385 8.127-8.325 8.35-8.325 8.349h-69.684l-7.889 7.774-7.89 7.775-7.89-7.775-7.89-7.774h-69.683l-8.325-8.349-8.326-8.35-20.384-8.127c-11.212-4.47-20.549-8.273-20.748-8.45-.2-.178 1.108-1.516 2.908-2.974 5.57-4.511 13.035-11.88 17.236-17.013l4.016-4.909h238.105l4.786 5.719Zm-254.76 36.428c12.939 5.184 23.707 9.607 23.93 9.829.223.223-.868 1.708-2.423 3.3l-2.827 2.896H49.347c-24.204 0-24.495-.018-26.939-1.646-1.359-.905-3.072-2.872-3.807-4.372l-1.336-2.726 1.997-3.445c1.457-2.514 11.39-13.261 12.255-13.261.051 0 10.679 4.241 23.618 9.425Zm291.543-3.755c2.321 2.28 5.124 5.696 6.228 7.591l2.008 3.445-1.336 2.726c-.736 1.5-2.449 3.467-3.808 4.372-2.444 1.628-2.735 1.646-26.938 1.646h-24.468l-2.827-2.896c-1.554-1.592-2.644-3.078-2.42-3.302.224-.224 10.838-4.599 23.585-9.722 17.198-6.911 23.51-9.146 24.467-8.661.709.36 3.188 2.52 5.509 4.801ZM92.341 134.931l4.896 4.727h69.511l8.826 8.725c6.18 6.11 9.333 8.726 10.515 8.726 1.182 0 4.334-2.616 10.514-8.726l8.826-8.725h69.512l5.019-4.846 5.02-4.846 5.019 4.846 5.02 4.846 24.975-.012c27.649-.012 31.264-.429 36.647-4.222 2.543-1.793 3.198-1.998 3.541-1.106.231.603.42 5.977.42 11.944v10.847l-15.088.012c-16.686.015-21.85.742-28.875 4.068-5.623 2.662-10.572 7.348-10.572 10.008 0 2.455 2.959 5.545 5.311 5.545.958 0 3.182-1.048 4.941-2.328 5.986-4.357 10.284-5.634 19.015-5.653l7.817-.018v4.619c0 5.276-1.596 8.373-5.761 11.179-2.288 1.542-3.206 1.654-13.672 1.654h-11.219l-2.125 2.125c-2.71 2.709-2.687 4.697.083 7.466l2.209 2.209 12.152-.303c13.894-.346 16.482-1.093 22.263-6.421 4.682-4.316 6.894-9.226 7.459-16.559l.46-5.969h5.676l-.219 17.329-.218 17.33-2.201 3.556c-1.362 2.201-3.557 4.396-5.759 5.758l-3.558 2.201-25.079.209-25.081.209-8.427-8.301c-9.33-9.192-14.198-12.213-22.517-13.977-7.06-1.496-158.828-1.512-165.878-.017-8.624 1.828-12.645 4.302-22.263 13.693l-8.813 8.605-23.603-.21-23.604-.211-3.558-2.201c-2.201-1.362-4.397-3.557-5.759-5.758l-2.2-3.556-.219-17.33-.218-17.329h5.675l.451 5.848c.251 3.26 1.075 7.259 1.861 9.035 2.016 4.56 6.861 9.491 11.604 11.811 3.868 1.892 4.745 2.016 16.253 2.279l12.166.279 2.209-2.209c2.77-2.769 2.792-4.757.083-7.466l-2.125-2.125h-11.22c-10.465 0-11.384-.112-13.672-1.654-4.164-2.806-5.76-5.903-5.76-11.179v-4.619l7.817.018c8.731.019 13.029 1.296 19.014 5.653 1.76 1.28 3.984 2.328 4.941 2.328 2.352 0 5.312-3.09 5.312-5.545 0-2.66-4.95-7.346-10.573-10.008-7.025-3.326-12.188-4.053-28.874-4.068l-15.089-.012v-10.847c0-5.967.19-11.341.42-11.944.343-.892 1-.687 3.542 1.106 5.383 3.793 8.998 4.21 36.657 4.222l24.983.012 4.83-4.714c2.655-2.592 4.965-4.719 5.133-4.726.168-.007 2.508 2.114 5.201 4.713Zm178.823 70.956c2.2 1.033 5.799 3.556 7.999 5.608l3.999 3.73-98.472.028-98.473.027 1.763-1.89c3.226-3.459 7.276-6.294 11.45-8.016l4.129-1.703 81.803.169 81.803.17 3.999 1.877ZM23.791 226.096c2.348.499 12.075.818 24.904.818h21.052v6.941c0 6.4-.14 7.08-1.785 8.726l-1.785 1.785H15.145l-1.784-1.785c-1.72-1.719-1.786-2.145-1.786-11.645v-9.86l4.182 2.101c2.3 1.155 5.915 2.469 8.034 2.919Zm336.811 4.85c0 9.489-.065 9.916-1.785 11.635l-1.784 1.785h-51.032l-1.785-1.785c-1.646-1.646-1.785-2.326-1.785-8.726v-6.941l21.269-.011c22.945-.012 26.389-.413 32.903-3.831 2-1.048 3.718-1.922 3.817-1.94.1-.019.182 4.397.182 9.814Z"/></mask><path fill-rule="evenodd" clip-rule="evenodd" d="M109.012 1.178C98.919 3.345 86.951 11.193 81.43 19.26c-1.115 1.63-5.018 9.508-8.674 17.507-3.655 7.998-8.363 17.092-10.463 20.207l-3.817 5.665-.364-6.275c-.333-5.76-.531-6.42-2.404-8.029-2.022-1.737-2.18-1.752-18.052-1.752H21.644l-2.126 2.125-2.125 2.126V61.03c0 13.672-.306 13.314 13.774 16.16 5.756 1.164 10.596 2.248 10.758 2.41.309.309-2.688 2.84-17.043 14.39-12.347 9.936-17.634 17.425-22.484 31.852L.32 132.023l-.224 53.684c-.256 61.136-.416 59.163 5.268 64.847C10.551 255.741 12.23 256 40.661 256c28.42 0 30.112-.26 35.285-5.435 3.999-3.997 5.435-8.554 5.435-17.239v-6.412h209.416v6.412c0 8.685 1.436 13.242 5.434 17.239 5.174 5.175 6.866 5.435 35.286 5.435 28.419 0 30.111-.26 35.285-5.435 5.578-5.578 5.435-3.955 5.429-61.412-.003-30.968-.295-52.419-.751-55.312-1.621-10.278-6.944-22.222-13.431-30.139-1.537-1.876-8.485-8.001-15.439-13.613-6.955-5.61-12.514-10.332-12.354-10.492.16-.16 4.999-1.243 10.754-2.406 14.08-2.847 13.775-2.489 13.775-16.16V50.834l-2.125-2.126-2.126-2.125h-16.012c-15.871 0-16.031.015-18.053 1.752-1.872 1.609-2.07 2.27-2.404 8.029l-.363 6.275-3.817-5.665c-2.1-3.115-6.808-12.209-10.464-20.207-3.655-7.999-7.558-15.877-8.674-17.507-5.617-8.21-17.548-15.948-27.945-18.124-7.366-1.54-146.596-1.504-153.79.04Zm158.896 13.354c3.392 1.663 6.647 4.073 9.822 7.272 4.383 4.416 5.187 5.76 10.466 17.509 3.144 6.998 6.519 14.115 7.5 15.815l1.783 3.09H74.775l1.763-3.09c.97-1.7 4.33-8.79 7.468-15.756 4.431-9.84 6.48-13.515 9.184-16.472 4.072-4.456 9.033-7.805 14.475-9.773 3.766-1.361 6.344-1.402 79.531-1.244l75.637.162 5.075 2.487ZM46.478 63.308c0 3.587-.268 5.09-.909 5.09-.5 0-4.426-.7-8.725-1.555l-7.817-1.557v-7.068h17.451v5.09Zm296.673-1.556v3.534l-7.817 1.557c-4.299.856-8.225 1.556-8.726 1.556-.64 0-.908-1.504-.908-5.09v-5.09h17.451v3.533Zm-33.257 13.819c4.237 5.061 8.639 9.322 17.259 16.705 1.4 1.198 2.381 2.317 2.181 2.486-.199.17-9.535 3.965-20.747 8.436l-20.385 8.127-8.325 8.35-8.325 8.349h-69.684l-7.889 7.774-7.89 7.775-7.89-7.775-7.89-7.774h-69.683l-8.325-8.349-8.326-8.35-20.384-8.127c-11.212-4.47-20.549-8.273-20.748-8.45-.2-.178 1.108-1.516 2.908-2.974 5.57-4.511 13.035-11.88 17.236-17.013l4.016-4.909h238.105l4.786 5.719Zm-254.76 36.428c12.939 5.184 23.707 9.607 23.93 9.829.223.223-.868 1.708-2.423 3.3l-2.827 2.896H49.347c-24.204 0-24.495-.018-26.939-1.646-1.359-.905-3.072-2.872-3.807-4.372l-1.336-2.726 1.997-3.445c1.457-2.514 11.39-13.261 12.255-13.261.051 0 10.679 4.241 23.618 9.425Zm291.543-3.755c2.321 2.28 5.124 5.696 6.228 7.591l2.008 3.445-1.336 2.726c-.736 1.5-2.449 3.467-3.808 4.372-2.444 1.628-2.735 1.646-26.938 1.646h-24.468l-2.827-2.896c-1.554-1.592-2.644-3.078-2.42-3.302.224-.224 10.838-4.599 23.585-9.722 17.198-6.911 23.51-9.146 24.467-8.661.709.36 3.188 2.52 5.509 4.801ZM92.341 134.931l4.896 4.727h69.511l8.826 8.725c6.18 6.11 9.333 8.726 10.515 8.726 1.182 0 4.334-2.616 10.514-8.726l8.826-8.725h69.512l5.019-4.846 5.02-4.846 5.019 4.846 5.02 4.846 24.975-.012c27.649-.012 31.264-.429 36.647-4.222 2.543-1.793 3.198-1.998 3.541-1.106.231.603.42 5.977.42 11.944v10.847l-15.088.012c-16.686.015-21.85.742-28.875 4.068-5.623 2.662-10.572 7.348-10.572 10.008 0 2.455 2.959 5.545 5.311 5.545.958 0 3.182-1.048 4.941-2.328 5.986-4.357 10.284-5.634 19.015-5.653l7.817-.018v4.619c0 5.276-1.596 8.373-5.761 11.179-2.288 1.542-3.206 1.654-13.672 1.654h-11.219l-2.125 2.125c-2.71 2.709-2.687 4.697.083 7.466l2.209 2.209 12.152-.303c13.894-.346 16.482-1.093 22.263-6.421 4.682-4.316 6.894-9.226 7.459-16.559l.46-5.969h5.676l-.219 17.329-.218 17.33-2.201 3.556c-1.362 2.201-3.557 4.396-5.759 5.758l-3.558 2.201-25.079.209-25.081.209-8.427-8.301c-9.33-9.192-14.198-12.213-22.517-13.977-7.06-1.496-158.828-1.512-165.878-.017-8.624 1.828-12.645 4.302-22.263 13.693l-8.813 8.605-23.603-.21-23.604-.211-3.558-2.201c-2.201-1.362-4.397-3.557-5.759-5.758l-2.2-3.556-.219-17.33-.218-17.329h5.675l.451 5.848c.251 3.26 1.075 7.259 1.861 9.035 2.016 4.56 6.861 9.491 11.604 11.811 3.868 1.892 4.745 2.016 16.253 2.279l12.166.279 2.209-2.209c2.77-2.769 2.792-4.757.083-7.466l-2.125-2.125h-11.22c-10.465 0-11.384-.112-13.672-1.654-4.164-2.806-5.76-5.903-5.76-11.179v-4.619l7.817.018c8.731.019 13.029 1.296 19.014 5.653 1.76 1.28 3.984 2.328 4.941 2.328 2.352 0 5.312-3.09 5.312-5.545 0-2.66-4.95-7.346-10.573-10.008-7.025-3.326-12.188-4.053-28.874-4.068l-15.089-.012v-10.847c0-5.967.19-11.341.42-11.944.343-.892 1-.687 3.542 1.106 5.383 3.793 8.998 4.21 36.657 4.222l24.983.012 4.83-4.714c2.655-2.592 4.965-4.719 5.133-4.726.168-.007 2.508 2.114 5.201 4.713Zm178.823 70.956c2.2 1.033 5.799 3.556 7.999 5.608l3.999 3.73-98.472.028-98.473.027 1.763-1.89c3.226-3.459 7.276-6.294 11.45-8.016l4.129-1.703 81.803.169 81.803.17 3.999 1.877ZM23.791 226.096c2.348.499 12.075.818 24.904.818h21.052v6.941c0 6.4-.14 7.08-1.785 8.726l-1.785 1.785H15.145l-1.784-1.785c-1.72-1.719-1.786-2.145-1.786-11.645v-9.86l4.182 2.101c2.3 1.155 5.915 2.469 8.034 2.919Zm336.811 4.85c0 9.489-.065 9.916-1.785 11.635l-1.784 1.785h-51.032l-1.785-1.785c-1.646-1.646-1.785-2.326-1.785-8.726v-6.941l21.269-.011c22.945-.012 26.389-.413 32.903-3.831 2-1.048 3.718-1.922 3.817-1.94.1-.019.182 4.397.182 9.814Z" fill="#fff" stroke="#000" stroke-width="4" stroke-linejoin="round" mask="url(#a)"/></svg>