<svg width="828" height="256" fill="none" xmlns="http://www.w3.org/2000/svg"><mask id="a" fill="#fff"><path fill-rule="evenodd" clip-rule="evenodd" d="M557.715 1.5c.827.827 16.073 2.317 33.875 3.31 19.049 1.064 32.921 3.46 33.712 5.822 1.847 5.546 33.473 21.15 63.801 31.483 13.89 4.73 46.361 11.267 72.158 14.525 25.796 3.258 48.828 7.385 51.181 9.168 6.714 5.087 9.427 23.898 4.986 34.617-3.265 7.887-2.641 13.815 3.269 30.995 8.691 25.263 9.319 45.445 1.861 59.869-7.695 14.883-15.622 17.967-46.137 17.967-44.218 0-63.535 5.171-76.05 20.352C687.808 244.848 665.519 256 647.613 256c-18.184 0-40.784-11.462-52.26-26.507l-9.929-13.021H196.651l-17.149 17.718c-14.33 14.811-20.02 18.144-34.646 20.309-28.578 4.225-62.842-11.123-69.141-30.97-1.956-6.155-5.607-7.057-28.604-7.057-14.503 0-31.034-.934-36.738-2.078L0 212.316v-40.657c0-45.12 1.357-48.544 23.743-59.963C54.006 96.254 139.22 79.81 220.08 73.806c31.764-2.36 33.178-2.864 64.942-23.216C359.733 2.724 369.937 0 474.489 0c44.947 0 82.4.675 83.226 1.5Zm-104.04 33.05c-4.474 13.739-9.048 27.82-10.163 31.295-1.631 5.065.115 6.313 8.821 6.313 5.968 0 11.614-1.233 12.545-2.738.93-1.508 2.879-16.333 4.329-32.943 3.334-38.215-3.445-39.056-15.532-1.927Zm-85.672-15.795c-11.906 3.907-30.299 12.032-40.874 18.053-18.663 10.63-18.981 11.073-10.823 15.117 5.094 2.526 8.853 8.039 9.542 14.003 1.108 9.532 1.84 9.838 23.452 9.817 12.27-.011 35.71-1.065 52.086-2.338l29.78-2.32 9.005-28.513c4.957-15.683 9.009-30.166 9.009-32.182 0-5.657-56.063.119-81.177 8.363Zm175.501-6.206c.949.945 15.839 5.812 33.088 10.81 44.831 12.991 63.823 22.549 63.726 32.059-.163 15.755-15.507 40.863-41.08 67.204-26.803 27.614-33.416 40.105-35.36 66.792-.971 13.367-.318 14.515 8.871 15.572 9.446 1.089 9.922.407 9.922-14.194 0-19.009 11.08-42.641 24.718-52.725 44.181-32.666 105.165-2.807 105.165 51.491 0 16.25.246 16.615 9.922 14.699 5.459-1.082 16.416-3.034 24.353-4.333 19.576-3.211 35.819-13.631 44.691-28.665 5.332-9.041 9.914-12.512 16.52-12.512 10.008 0 10.842-2.276 5.744-15.683-2.594-6.826-8.323-10.369-24.245-14.998-29.025-8.439-47.169-18.357-50.023-27.348-3.871-12.205 3.821-15.846 36.356-17.206 21.767-.905 30.487-2.597 30.487-5.906 0-3.193-11.52-5.989-36.981-8.98-59.079-6.941-99.483-18.591-140.811-40.6-13.223-7.042-29.062-12.038-43.295-13.658-29.195-3.323-43.911-3.966-41.768-1.819Zm-63.167 15.016c-1.262 9.204-2.294 22.192-2.294 28.863V68.55l22.549-.093c43.352-.177 125.373-9.633 125.373-14.45 0-1.595-7.446-5.743-16.549-9.218-15.975-6.104-114.579-33.17-122.765-33.705-2.211-.14-5.051 7.274-6.314 16.481Zm-191.199 40.79c-19.536 7.43-9.925 16.784 14.388 14.007 8.389-.96 10.586-3.161 11.546-11.567 1.086-9.5.407-10.189-7.959-8.09-5.03 1.264-13.118 3.807-17.975 5.65Zm263.169 7.494c-20.009 1.804-47.84 3.338-61.85 3.403-14.561.072-28.051 2.052-31.5 4.632-9.186 6.866-14.291 51.398-9.903 86.383 1.973 15.741 4.527 30.14 5.678 32.002 1.148 1.858 23.91 3.381 50.583 3.381h48.493v-15.594c0-28.141 9.644-48.111 34.921-72.298 21.3-20.384 37.236-40.668 37.236-47.393 0-1.508-8.388-1.63-18.638-.27-10.253 1.36-35.011 3.947-55.02 5.754ZM194.825 86.776c-40.437 3.75-96.767 12.062-110.758 16.344-3.568 1.093-5.286 4.073-4.113 7.133 5.675 14.785-28.213 38.521-55.871 39.131-15.204.335-15.55.606-13.53 10.715 1.14 5.704 2.074 18.289 2.074 27.961v17.589h53.224l1.627-19.613c3.049-36.757 30.313-61.518 67.182-61.012 34.654.472 62.33 28.794 62.867 64.335l.246 16.29h64.371l-2.994-11.726c-3.796-14.882-3.908-87.541-.155-102.114 3.257-12.645 11.227-12.02-64.17-5.032Zm124.028 4.142c-1.635 2.641-10.445 3.251-25.981 1.8l-23.505-2.197-2.641 15.172c-4.055 23.328-2.623 67.662 2.71 83.72l4.791 14.432 83.45.967 83.454.966-1.743-46.065c-.97-25.681-.105-53.09 1.959-61.94l3.702-15.874-61.864 2.51c-38.742 1.574-62.788 4.005-64.332 6.51Zm433.774 5.11c-3.655 3.127 8.904 12.237 23.931 17.357 24.606 8.384 27.896 7.609 28.628-6.754.516-10.15-.793-12.646-7.215-13.782-8.064-1.422-42.808 1.01-45.344 3.178Zm-155.525-2.292c0 8.446-28.787 9.33-31.568.97-1.057-3.17 3.409-4.51 15.034-4.51 9.091 0 16.534 1.592 16.534 3.54Zm-167.866 7.118c1.298 2.104-.022 4.741-2.934 5.86-7.98 3.059-29.436.227-29.436-3.89 0-4.942 29.425-6.732 32.37-1.97ZM28.863 121.863c-9.922 5.419-17.56 11.469-16.975 13.447 2.02 6.826 30.256 2.316 44.496-7.108 7.685-5.083 13.97-10.845 13.97-12.801 0-6.941-23.712-3.247-41.491 6.462Zm590.215 21.088c-15.777 9.42-23.318 22.935-24.822 44.496-1.155 16.495.094 22.221 7.107 32.633 23.43 34.766 73.28 33.088 94.462-3.178 28.033-48.003-28.679-102.652-76.747-73.951Zm-516.254.981c-41.956 30.039-28.26 93.722 21.597 100.411 7.724 1.035 18.079.873 23.007-.364 14.306-3.59 30.155-19.223 36.599-36.09 10.744-28.13-3.605-58.635-32.496-69.094-16.799-6.079-35.848-4.07-48.707 5.137Zm573.818 13.912c22.513 20.118 17.065 58.556-10.128 71.461-33.138 15.727-69.653-15.095-60.605-51.156 1.314-5.227 7.05-14.168 12.747-19.865 8.68-8.68 13.324-10.361 28.621-10.361 14.825 0 20.352 1.869 29.365 9.921Zm-513.927 2.345c10.008 10.009 12.267 15.024 12.267 27.24 0 20.272-7.869 34.033-23.769 41.581-37.861 17.967-76.786-21.965-57.592-59.083 7.591-14.68 20.936-22.004 40.105-22.004 14.207 0 18.566 1.843 28.989 12.266Zm479.847-2.886c-4.323 1.66-4.784 3.767-1.974 9.02 4.387 8.197 15.229 8.944 21.427 1.479 4.341-5.228 3.287-6.22-13.205-12.436-.335-.123-3.146.747-6.248 1.937Zm-528.012 5.935c-6.072 4.86-5.679 8.72 1.162 11.343 8.269 3.175 19.583-4.106 19.583-12.598 0-5.935-1.544-6.855-8.118-4.842-4.466 1.367-10.149 4.113-12.627 6.097Zm30.263 4.528c-3.392 8.846 1.482 16.235 10.711 16.235 10.099 0 10.691-2.673 3.017-13.627-6.552-9.358-10.824-10.17-13.728-2.608Zm661.744 2.706c-2.034 2.482-7.926 9.788-13.093 16.235l-9.394 11.726h10.704c12.523 0 17.892-5.383 21.034-21.088 2.37-11.856-2.316-15.337-9.251-6.873Zm-186.393 1.804c-7.851 10.34-6.296 19.623 3.059 18.292 8.241-1.176 12.163-10.052 8.573-19.403-2.634-6.866-5.805-6.563-11.632 1.111Zm45.488 15.773c0 3.727.678 6.776 1.508 6.776s4.077.985 7.216 2.19c4.409 1.692 5.707-.227 5.707-8.417 0-5.838-1.067-11.679-2.373-12.985-3.706-3.705-12.058 4.91-12.058 12.436Zm-565.76 4.07c1.233 12.801 8.69 15.651 14.957 5.715 4.366-6.924-2.201-17.44-10.892-17.44-3.691 0-4.87 3.398-4.066 11.725Zm542.294-4.484c-1.237 1.998.361 4.636 3.551 5.859 6.905 2.648 10.755-.271 7.435-5.643-2.994-4.849-8.063-4.946-10.986-.216Zm-515.925 0c-1.237 1.998.361 4.636 3.55 5.859 6.906 2.648 10.755-.271 7.436-5.643-2.995-4.849-8.064-4.946-10.986-.216Zm20.237 12.144c-3.843 4.632-2.089 16.693 2.428 16.693 4.224 0 15.232-12.14 15.232-16.794 0-6.336-12.379-6.264-17.66.101Zm472.252 5.105c0 4.196 12.158 15.196 16.794 15.196 5.813 0 6.448-11.394.942-16.899-3.759-3.76-17.736-2.417-17.736 1.703Zm38.178-.653c-5.931 2.276-8.139 19.457-2.5 19.457 1.764 0 7.042-3.215 11.726-7.144 7.269-6.093 7.724-7.674 3.106-10.766-6.501-4.358-5.376-4.217-12.332-1.547Zm-539.9 7.104c-3.91 4.715-3.835 6.248.459 8.965 6.248 3.954 22.441 4.496 20.381.682-.801-1.486-2.472-5.545-3.706-9.02-2.796-7.85-10.892-8.146-17.134-.627Z"/></mask><path fill-rule="evenodd" clip-rule="evenodd" d="M557.715 1.5c.827.827 16.073 2.317 33.875 3.31 19.049 1.064 32.921 3.46 33.712 5.822 1.847 5.546 33.473 21.15 63.801 31.483 13.89 4.73 46.361 11.267 72.158 14.525 25.796 3.258 48.828 7.385 51.181 9.168 6.714 5.087 9.427 23.898 4.986 34.617-3.265 7.887-2.641 13.815 3.269 30.995 8.691 25.263 9.319 45.445 1.861 59.869-7.695 14.883-15.622 17.967-46.137 17.967-44.218 0-63.535 5.171-76.05 20.352C687.808 244.848 665.519 256 647.613 256c-18.184 0-40.784-11.462-52.26-26.507l-9.929-13.021H196.651l-17.149 17.718c-14.33 14.811-20.02 18.144-34.646 20.309-28.578 4.225-62.842-11.123-69.141-30.97-1.956-6.155-5.607-7.057-28.604-7.057-14.503 0-31.034-.934-36.738-2.078L0 212.316v-40.657c0-45.12 1.357-48.544 23.743-59.963C54.006 96.254 139.22 79.81 220.08 73.806c31.764-2.36 33.178-2.864 64.942-23.216C359.733 2.724 369.937 0 474.489 0c44.947 0 82.4.675 83.226 1.5Zm-104.04 33.05c-4.474 13.739-9.048 27.82-10.163 31.295-1.631 5.065.115 6.313 8.821 6.313 5.968 0 11.614-1.233 12.545-2.738.93-1.508 2.879-16.333 4.329-32.943 3.334-38.215-3.445-39.056-15.532-1.927Zm-85.672-15.795c-11.906 3.907-30.299 12.032-40.874 18.053-18.663 10.63-18.981 11.073-10.823 15.117 5.094 2.526 8.853 8.039 9.542 14.003 1.108 9.532 1.84 9.838 23.452 9.817 12.27-.011 35.71-1.065 52.086-2.338l29.78-2.32 9.005-28.513c4.957-15.683 9.009-30.166 9.009-32.182 0-5.657-56.063.119-81.177 8.363Zm175.501-6.206c.949.945 15.839 5.812 33.088 10.81 44.831 12.991 63.823 22.549 63.726 32.059-.163 15.755-15.507 40.863-41.08 67.204-26.803 27.614-33.416 40.105-35.36 66.792-.971 13.367-.318 14.515 8.871 15.572 9.446 1.089 9.922.407 9.922-14.194 0-19.009 11.08-42.641 24.718-52.725 44.181-32.666 105.165-2.807 105.165 51.491 0 16.25.246 16.615 9.922 14.699 5.459-1.082 16.416-3.034 24.353-4.333 19.576-3.211 35.819-13.631 44.691-28.665 5.332-9.041 9.914-12.512 16.52-12.512 10.008 0 10.842-2.276 5.744-15.683-2.594-6.826-8.323-10.369-24.245-14.998-29.025-8.439-47.169-18.357-50.023-27.348-3.871-12.205 3.821-15.846 36.356-17.206 21.767-.905 30.487-2.597 30.487-5.906 0-3.193-11.52-5.989-36.981-8.98-59.079-6.941-99.483-18.591-140.811-40.6-13.223-7.042-29.062-12.038-43.295-13.658-29.195-3.323-43.911-3.966-41.768-1.819Zm-63.167 15.016c-1.262 9.204-2.294 22.192-2.294 28.863V68.55l22.549-.093c43.352-.177 125.373-9.633 125.373-14.45 0-1.595-7.446-5.743-16.549-9.218-15.975-6.104-114.579-33.17-122.765-33.705-2.211-.14-5.051 7.274-6.314 16.481Zm-191.199 40.79c-19.536 7.43-9.925 16.784 14.388 14.007 8.389-.96 10.586-3.161 11.546-11.567 1.086-9.5.407-10.189-7.959-8.09-5.03 1.264-13.118 3.807-17.975 5.65Zm263.169 7.494c-20.009 1.804-47.84 3.338-61.85 3.403-14.561.072-28.051 2.052-31.5 4.632-9.186 6.866-14.291 51.398-9.903 86.383 1.973 15.741 4.527 30.14 5.678 32.002 1.148 1.858 23.91 3.381 50.583 3.381h48.493v-15.594c0-28.141 9.644-48.111 34.921-72.298 21.3-20.384 37.236-40.668 37.236-47.393 0-1.508-8.388-1.63-18.638-.27-10.253 1.36-35.011 3.947-55.02 5.754ZM194.825 86.776c-40.437 3.75-96.767 12.062-110.758 16.344-3.568 1.093-5.286 4.073-4.113 7.133 5.675 14.785-28.213 38.521-55.871 39.131-15.204.335-15.55.606-13.53 10.715 1.14 5.704 2.074 18.289 2.074 27.961v17.589h53.224l1.627-19.613c3.049-36.757 30.313-61.518 67.182-61.012 34.654.472 62.33 28.794 62.867 64.335l.246 16.29h64.371l-2.994-11.726c-3.796-14.882-3.908-87.541-.155-102.114 3.257-12.645 11.227-12.02-64.17-5.032Zm124.028 4.142c-1.635 2.641-10.445 3.251-25.981 1.8l-23.505-2.197-2.641 15.172c-4.055 23.328-2.623 67.662 2.71 83.72l4.791 14.432 83.45.967 83.454.966-1.743-46.065c-.97-25.681-.105-53.09 1.959-61.94l3.702-15.874-61.864 2.51c-38.742 1.574-62.788 4.005-64.332 6.51Zm433.774 5.11c-3.655 3.127 8.904 12.237 23.931 17.357 24.606 8.384 27.896 7.609 28.628-6.754.516-10.15-.793-12.646-7.215-13.782-8.064-1.422-42.808 1.01-45.344 3.178Zm-155.525-2.292c0 8.446-28.787 9.33-31.568.97-1.057-3.17 3.409-4.51 15.034-4.51 9.091 0 16.534 1.592 16.534 3.54Zm-167.866 7.118c1.298 2.104-.022 4.741-2.934 5.86-7.98 3.059-29.436.227-29.436-3.89 0-4.942 29.425-6.732 32.37-1.97ZM28.863 121.863c-9.922 5.419-17.56 11.469-16.975 13.447 2.02 6.826 30.256 2.316 44.496-7.108 7.685-5.083 13.97-10.845 13.97-12.801 0-6.941-23.712-3.247-41.491 6.462Zm590.215 21.088c-15.777 9.42-23.318 22.935-24.822 44.496-1.155 16.495.094 22.221 7.107 32.633 23.43 34.766 73.28 33.088 94.462-3.178 28.033-48.003-28.679-102.652-76.747-73.951Zm-516.254.981c-41.956 30.039-28.26 93.722 21.597 100.411 7.724 1.035 18.079.873 23.007-.364 14.306-3.59 30.155-19.223 36.599-36.09 10.744-28.13-3.605-58.635-32.496-69.094-16.799-6.079-35.848-4.07-48.707 5.137Zm573.818 13.912c22.513 20.118 17.065 58.556-10.128 71.461-33.138 15.727-69.653-15.095-60.605-51.156 1.314-5.227 7.05-14.168 12.747-19.865 8.68-8.68 13.324-10.361 28.621-10.361 14.825 0 20.352 1.869 29.365 9.921Zm-513.927 2.345c10.008 10.009 12.267 15.024 12.267 27.24 0 20.272-7.869 34.033-23.769 41.581-37.861 17.967-76.786-21.965-57.592-59.083 7.591-14.68 20.936-22.004 40.105-22.004 14.207 0 18.566 1.843 28.989 12.266Zm479.847-2.886c-4.323 1.66-4.784 3.767-1.974 9.02 4.387 8.197 15.229 8.944 21.427 1.479 4.341-5.228 3.287-6.22-13.205-12.436-.335-.123-3.146.747-6.248 1.937Zm-528.012 5.935c-6.072 4.86-5.679 8.72 1.162 11.343 8.269 3.175 19.583-4.106 19.583-12.598 0-5.935-1.544-6.855-8.118-4.842-4.466 1.367-10.149 4.113-12.627 6.097Zm30.263 4.528c-3.392 8.846 1.482 16.235 10.711 16.235 10.099 0 10.691-2.673 3.017-13.627-6.552-9.358-10.824-10.17-13.728-2.608Zm661.744 2.706c-2.034 2.482-7.926 9.788-13.093 16.235l-9.394 11.726h10.704c12.523 0 17.892-5.383 21.034-21.088 2.37-11.856-2.316-15.337-9.251-6.873Zm-186.393 1.804c-7.851 10.34-6.296 19.623 3.059 18.292 8.241-1.176 12.163-10.052 8.573-19.403-2.634-6.866-5.805-6.563-11.632 1.111Zm45.488 15.773c0 3.727.678 6.776 1.508 6.776s4.077.985 7.216 2.19c4.409 1.692 5.707-.227 5.707-8.417 0-5.838-1.067-11.679-2.373-12.985-3.706-3.705-12.058 4.91-12.058 12.436Zm-565.76 4.07c1.233 12.801 8.69 15.651 14.957 5.715 4.366-6.924-2.201-17.44-10.892-17.44-3.691 0-4.87 3.398-4.066 11.725Zm542.294-4.484c-1.237 1.998.361 4.636 3.551 5.859 6.905 2.648 10.755-.271 7.435-5.643-2.994-4.849-8.063-4.946-10.986-.216Zm-515.925 0c-1.237 1.998.361 4.636 3.55 5.859 6.906 2.648 10.755-.271 7.436-5.643-2.995-4.849-8.064-4.946-10.986-.216Zm20.237 12.144c-3.843 4.632-2.089 16.693 2.428 16.693 4.224 0 15.232-12.14 15.232-16.794 0-6.336-12.379-6.264-17.66.101Zm472.252 5.105c0 4.196 12.158 15.196 16.794 15.196 5.813 0 6.448-11.394.942-16.899-3.759-3.76-17.736-2.417-17.736 1.703Zm38.178-.653c-5.931 2.276-8.139 19.457-2.5 19.457 1.764 0 7.042-3.215 11.726-7.144 7.269-6.093 7.724-7.674 3.106-10.766-6.501-4.358-5.376-4.217-12.332-1.547Zm-539.9 7.104c-3.91 4.715-3.835 6.248.459 8.965 6.248 3.954 22.441 4.496 20.381.682-.801-1.486-2.472-5.545-3.706-9.02-2.796-7.85-10.892-8.146-17.134-.627Z" fill="#fff" stroke="#000" stroke-width="4" mask="url(#a)"/></svg>