<svg width="828" height="256" fill="none" xmlns="http://www.w3.org/2000/svg"><mask id="a" fill="#fff"><path fill-rule="evenodd" clip-rule="evenodd" d="M270.004 1.5c-.826.827-16.073 2.317-33.874 3.31-19.05 1.064-32.922 3.46-33.712 5.822-1.848 5.546-33.474 21.15-63.802 31.483-13.89 4.73-46.361 11.267-72.157 14.525-25.797 3.258-48.83 7.385-51.182 9.168-6.714 5.087-9.427 23.898-4.986 34.617 3.265 7.887 2.641 13.815-3.268 30.995-8.692 25.263-9.32 45.445-1.862 59.869 7.696 14.883 15.622 17.967 46.137 17.967 44.218 0 63.535 5.171 76.051 20.352C139.911 244.848 162.201 256 180.107 256c18.183 0 40.783-11.462 52.26-26.507l9.928-13.021h388.774l17.148 17.718c14.33 14.811 20.02 18.144 34.646 20.309 28.578 4.225 62.842-11.123 69.142-30.97 1.955-6.155 5.606-7.057 28.603-7.057 14.503 0 31.035-.934 36.739-2.078l10.372-2.078v-40.657c0-45.12-1.356-48.544-23.743-59.963-30.263-15.442-115.477-31.886-196.337-37.89-31.764-2.36-33.178-2.864-64.941-23.216C467.986 2.724 457.783 0 353.23 0c-44.947 0-82.4.675-83.226 1.5Zm104.04 33.049c4.474 13.739 9.049 27.82 10.163 31.295 1.631 5.065-.115 6.313-8.821 6.313-5.967 0-11.614-1.233-12.544-2.738-.931-1.508-2.88-16.333-4.33-32.943-3.334-38.215 3.446-39.056 15.532-1.927Zm85.673-15.795c11.905 3.907 30.298 12.032 40.873 18.053 18.664 10.63 18.981 11.073 10.824 15.117-5.095 2.526-8.854 8.039-9.543 14.003-1.108 9.532-1.84 9.838-23.451 9.817-12.271-.011-35.711-1.065-52.087-2.338l-29.779-2.32-9.006-28.513c-4.957-15.683-9.009-30.166-9.009-32.182 0-5.657 56.063.119 81.178 8.363Zm-175.502-6.206c-.949.945-15.838 5.812-33.088 10.81-44.831 12.991-63.823 22.549-63.725 32.059.162 15.755 15.506 40.863 41.079 67.204 26.803 27.614 33.416 40.105 35.361 66.792.97 13.367.317 14.515-8.872 15.572-9.446 1.089-9.922.407-9.922-14.194 0-19.009-11.08-42.641-24.717-52.725-44.182-32.666-105.166-2.807-105.166 51.491 0 16.25-.245 16.615-9.922 14.699-5.458-1.082-16.415-3.034-24.353-4.333-19.576-3.211-35.819-13.631-44.69-28.665-5.333-9.041-9.915-12.512-16.521-12.512-10.008 0-10.842-2.276-5.744-15.683 2.594-6.826 8.324-10.369 24.245-14.998 29.026-8.439 47.17-18.357 50.023-27.348 3.871-12.205-3.82-15.846-36.356-17.206-21.767-.905-30.487-2.597-30.487-5.906 0-3.193 11.52-5.989 36.981-8.98 59.079-6.941 99.483-18.591 140.812-40.6 13.222-7.042 29.061-12.038 43.294-13.658 29.195-3.323 43.911-3.966 41.768-1.819Zm63.167 15.016c1.263 9.204 2.294 22.192 2.294 28.863V68.55l-22.549-.093c-43.352-.177-125.373-9.633-125.373-14.45 0-1.595 7.446-5.743 16.549-9.218 15.976-6.104 114.579-33.17 122.765-33.705 2.212-.14 5.051 7.274 6.314 16.481Zm191.199 40.79c19.537 7.43 9.925 16.784-14.388 14.007-8.389-.96-10.586-3.161-11.545-11.567-1.086-9.5-.408-10.189 7.959-8.09 5.029 1.264 13.118 3.807 17.974 5.65Zm-263.169 7.494c20.009 1.804 47.84 3.338 61.85 3.403 14.561.072 28.051 2.052 31.5 4.632 9.186 6.866 14.291 51.398 9.904 86.383-1.974 15.741-4.528 30.14-5.679 32.002-1.147 1.858-23.909 3.381-50.582 3.381h-48.494v-15.594c0-28.141-9.644-48.111-34.92-72.298-21.301-20.384-37.237-40.668-37.237-47.393 0-1.508 8.388-1.63 18.638-.27 10.254 1.36 35.011 3.947 55.02 5.754Zm357.482 10.928c40.437 3.75 96.767 12.062 110.758 16.344 3.568 1.093 5.286 4.073 4.113 7.133-5.675 14.785 28.214 38.521 55.872 39.131 15.203.335 15.55.606 13.529 10.715-1.14 5.704-2.074 18.289-2.074 27.961v17.589h-53.224l-1.627-19.613c-3.048-36.757-30.313-61.518-67.182-61.012-34.653.472-62.329 28.794-62.867 64.335l-.245 16.29h-64.372l2.995-11.726c3.795-14.882 3.907-87.541.155-102.114-3.258-12.645-11.228-12.02 64.169-5.032Zm-124.027 4.142c1.634 2.641 10.444 3.251 25.98 1.8l23.505-2.197 2.641 15.172c4.055 23.328 2.623 67.662-2.709 83.72l-4.792 14.432-83.45.967-83.453.966 1.742-46.065c.971-25.681.105-53.09-1.959-61.94L382.67 81.9l61.865 2.51c38.741 1.574 62.787 4.005 64.332 6.51Zm-433.775 5.11c3.655 3.127-8.904 12.237-23.93 17.357-24.606 8.384-27.897 7.609-28.63-6.754-.515-10.15.795-12.646 7.217-13.782 8.063-1.422 42.807 1.01 45.343 3.178Zm155.525-2.292c0 8.446 28.787 9.33 31.569.97 1.057-3.17-3.41-4.51-15.034-4.51-9.092 0-16.535 1.592-16.535 3.54Zm167.867 7.118c-1.299 2.104.021 4.741 2.933 5.86 7.981 3.059 29.437.227 29.437-3.89 0-4.942-29.426-6.732-32.37-1.97Zm400.372 21.009c9.922 5.419 17.56 11.469 16.975 13.447-2.02 6.826-30.255 2.316-44.496-7.108-7.684-5.083-13.969-10.845-13.969-12.801 0-6.941 23.711-3.247 41.49 6.462Zm-590.215 21.088c15.777 9.42 23.318 22.935 24.822 44.496 1.155 16.495-.093 22.221-7.107 32.633-23.43 34.766-73.28 33.088-94.461-3.178-28.034-48.003 28.679-102.652 76.746-73.951Zm516.254.981c41.956 30.039 28.26 93.722-21.597 100.411-7.724 1.035-18.079.873-23.007-.364-14.305-3.59-30.155-19.223-36.598-36.09-10.745-28.13 3.604-58.635 32.496-69.094 16.798-6.079 35.848-4.07 48.706 5.137Zm-573.817 13.912c-22.513 20.118-17.066 58.556 10.127 71.461 33.138 15.727 69.653-15.095 60.605-51.156-1.313-5.227-7.05-14.168-12.747-19.865-8.68-8.68-13.324-10.361-28.621-10.361-14.825 0-20.352 1.869-29.364 9.921Zm513.926 2.345c-10.008 10.009-12.266 15.024-12.266 27.24 0 20.272 7.868 34.033 23.768 41.581 37.861 17.967 76.786-21.965 57.593-59.083-7.591-14.68-20.937-22.004-40.105-22.004-14.208 0-18.567 1.843-28.99 12.266Zm-479.846-2.886c4.322 1.66 4.784 3.767 1.973 9.02-4.387 8.197-15.229 8.944-21.427 1.479-4.34-5.228-3.287-6.22 13.205-12.436.335-.123 3.146.747 6.249 1.937Zm528.011 5.935c6.072 4.86 5.679 8.72-1.161 11.343-8.27 3.175-19.584-4.106-19.584-12.598 0-5.935 1.544-6.855 8.118-4.842 4.466 1.367 10.149 4.113 12.627 6.097Zm-30.262 4.528c3.391 8.846-1.483 16.235-10.712 16.235-10.099 0-10.69-2.673-3.016-13.627 6.552-9.358 10.823-10.17 13.728-2.608Zm-661.745 2.706c2.035 2.482 7.926 9.788 13.093 16.235l9.395 11.726H32.945c-12.523 0-17.891-5.383-21.034-21.088-2.37-11.856 2.316-15.337 9.25-6.873Zm186.393 1.804c7.851 10.34 6.296 19.623-3.059 18.292-8.241-1.176-12.162-10.052-8.573-19.403 2.634-6.866 5.806-6.563 11.632 1.111Zm-45.488 15.773c0 3.727-.678 6.776-1.508 6.776s-4.077.985-7.216 2.19c-4.408 1.692-5.707-.227-5.707-8.417 0-5.838 1.068-11.679 2.374-12.985 3.705-3.705 12.057 4.91 12.057 12.436Zm565.761 4.07c-1.234 12.801-8.691 15.651-14.958 5.715-4.366-6.924 2.201-17.44 10.892-17.44 3.691 0 4.871 3.398 4.066 11.725Zm-542.295-4.484c1.237 1.998-.361 4.636-3.55 5.859-6.906 2.648-10.755-.271-7.436-5.643 2.994-4.849 8.063-4.946 10.986-.216Zm515.925 0c1.238 1.998-.361 4.636-3.55 5.859-6.905 2.648-10.755-.271-7.436-5.643 2.995-4.849 8.064-4.946 10.986-.216Zm-20.236 12.144c3.842 4.632 2.089 16.693-2.428 16.693-4.225 0-15.233-12.14-15.233-16.794 0-6.336 12.379-6.264 17.661.101Zm-472.252 5.105c0 4.196-12.159 15.196-16.795 15.196-5.812 0-6.447-11.394-.942-16.899 3.76-3.76 17.737-2.417 17.737 1.703Zm-38.179-.653c5.931 2.276 8.139 19.457 2.5 19.457-1.764 0-7.042-3.215-11.725-7.144-7.27-6.093-7.725-7.674-3.107-10.766 6.502-4.358 5.376-4.217 12.332-1.547Zm539.9 7.104c3.911 4.715 3.835 6.248-.458 8.965-6.249 3.954-22.441 4.496-20.381.682.801-1.486 2.471-5.545 3.705-9.02 2.796-7.85 10.892-8.146 17.134-.627Z"/></mask><path fill-rule="evenodd" clip-rule="evenodd" d="M270.004 1.5c-.826.827-16.073 2.317-33.874 3.31-19.05 1.064-32.922 3.46-33.712 5.822-1.848 5.546-33.474 21.15-63.802 31.483-13.89 4.73-46.361 11.267-72.157 14.525-25.797 3.258-48.83 7.385-51.182 9.168-6.714 5.087-9.427 23.898-4.986 34.617 3.265 7.887 2.641 13.815-3.268 30.995-8.692 25.263-9.32 45.445-1.862 59.869 7.696 14.883 15.622 17.967 46.137 17.967 44.218 0 63.535 5.171 76.051 20.352C139.911 244.848 162.201 256 180.107 256c18.183 0 40.783-11.462 52.26-26.507l9.928-13.021h388.774l17.148 17.718c14.33 14.811 20.02 18.144 34.646 20.309 28.578 4.225 62.842-11.123 69.142-30.97 1.955-6.155 5.606-7.057 28.603-7.057 14.503 0 31.035-.934 36.739-2.078l10.372-2.078v-40.657c0-45.12-1.356-48.544-23.743-59.963-30.263-15.442-115.477-31.886-196.337-37.89-31.764-2.36-33.178-2.864-64.941-23.216C467.986 2.724 457.783 0 353.23 0c-44.947 0-82.4.675-83.226 1.5Zm104.04 33.049c4.474 13.739 9.049 27.82 10.163 31.295 1.631 5.065-.115 6.313-8.821 6.313-5.967 0-11.614-1.233-12.544-2.738-.931-1.508-2.88-16.333-4.33-32.943-3.334-38.215 3.446-39.056 15.532-1.927Zm85.673-15.795c11.905 3.907 30.298 12.032 40.873 18.053 18.664 10.63 18.981 11.073 10.824 15.117-5.095 2.526-8.854 8.039-9.543 14.003-1.108 9.532-1.84 9.838-23.451 9.817-12.271-.011-35.711-1.065-52.087-2.338l-29.779-2.32-9.006-28.513c-4.957-15.683-9.009-30.166-9.009-32.182 0-5.657 56.063.119 81.178 8.363Zm-175.502-6.206c-.949.945-15.838 5.812-33.088 10.81-44.831 12.991-63.823 22.549-63.725 32.059.162 15.755 15.506 40.863 41.079 67.204 26.803 27.614 33.416 40.105 35.361 66.792.97 13.367.317 14.515-8.872 15.572-9.446 1.089-9.922.407-9.922-14.194 0-19.009-11.08-42.641-24.717-52.725-44.182-32.666-105.166-2.807-105.166 51.491 0 16.25-.245 16.615-9.922 14.699-5.458-1.082-16.415-3.034-24.353-4.333-19.576-3.211-35.819-13.631-44.69-28.665-5.333-9.041-9.915-12.512-16.521-12.512-10.008 0-10.842-2.276-5.744-15.683 2.594-6.826 8.324-10.369 24.245-14.998 29.026-8.439 47.17-18.357 50.023-27.348 3.871-12.205-3.82-15.846-36.356-17.206-21.767-.905-30.487-2.597-30.487-5.906 0-3.193 11.52-5.989 36.981-8.98 59.079-6.941 99.483-18.591 140.812-40.6 13.222-7.042 29.061-12.038 43.294-13.658 29.195-3.323 43.911-3.966 41.768-1.819Zm63.167 15.016c1.263 9.204 2.294 22.192 2.294 28.863V68.55l-22.549-.093c-43.352-.177-125.373-9.633-125.373-14.45 0-1.595 7.446-5.743 16.549-9.218 15.976-6.104 114.579-33.17 122.765-33.705 2.212-.14 5.051 7.274 6.314 16.481Zm191.199 40.79c19.537 7.43 9.925 16.784-14.388 14.007-8.389-.96-10.586-3.161-11.545-11.567-1.086-9.5-.408-10.189 7.959-8.09 5.029 1.264 13.118 3.807 17.974 5.65Zm-263.169 7.494c20.009 1.804 47.84 3.338 61.85 3.403 14.561.072 28.051 2.052 31.5 4.632 9.186 6.866 14.291 51.398 9.904 86.383-1.974 15.741-4.528 30.14-5.679 32.002-1.147 1.858-23.909 3.381-50.582 3.381h-48.494v-15.594c0-28.141-9.644-48.111-34.92-72.298-21.301-20.384-37.237-40.668-37.237-47.393 0-1.508 8.388-1.63 18.638-.27 10.254 1.36 35.011 3.947 55.02 5.754Zm357.482 10.928c40.437 3.75 96.767 12.062 110.758 16.344 3.568 1.093 5.286 4.073 4.113 7.133-5.675 14.785 28.214 38.521 55.872 39.131 15.203.335 15.55.606 13.529 10.715-1.14 5.704-2.074 18.289-2.074 27.961v17.589h-53.224l-1.627-19.613c-3.048-36.757-30.313-61.518-67.182-61.012-34.653.472-62.329 28.794-62.867 64.335l-.245 16.29h-64.372l2.995-11.726c3.795-14.882 3.907-87.541.155-102.114-3.258-12.645-11.228-12.02 64.169-5.032Zm-124.027 4.142c1.634 2.641 10.444 3.251 25.98 1.8l23.505-2.197 2.641 15.172c4.055 23.328 2.623 67.662-2.709 83.72l-4.792 14.432-83.45.967-83.453.966 1.742-46.065c.971-25.681.105-53.09-1.959-61.94L382.67 81.9l61.865 2.51c38.741 1.574 62.787 4.005 64.332 6.51Zm-433.775 5.11c3.655 3.127-8.904 12.237-23.93 17.357-24.606 8.384-27.897 7.609-28.63-6.754-.515-10.15.795-12.646 7.217-13.782 8.063-1.422 42.807 1.01 45.343 3.178Zm155.525-2.292c0 8.446 28.787 9.33 31.569.97 1.057-3.17-3.41-4.51-15.034-4.51-9.092 0-16.535 1.592-16.535 3.54Zm167.867 7.118c-1.299 2.104.021 4.741 2.933 5.86 7.981 3.059 29.437.227 29.437-3.89 0-4.942-29.426-6.732-32.37-1.97Zm400.372 21.009c9.922 5.419 17.56 11.469 16.975 13.447-2.02 6.826-30.255 2.316-44.496-7.108-7.684-5.083-13.969-10.845-13.969-12.801 0-6.941 23.711-3.247 41.49 6.462Zm-590.215 21.088c15.777 9.42 23.318 22.935 24.822 44.496 1.155 16.495-.093 22.221-7.107 32.633-23.43 34.766-73.28 33.088-94.461-3.178-28.034-48.003 28.679-102.652 76.746-73.951Zm516.254.981c41.956 30.039 28.26 93.722-21.597 100.411-7.724 1.035-18.079.873-23.007-.364-14.305-3.59-30.155-19.223-36.598-36.09-10.745-28.13 3.604-58.635 32.496-69.094 16.798-6.079 35.848-4.07 48.706 5.137Zm-573.817 13.912c-22.513 20.118-17.066 58.556 10.127 71.461 33.138 15.727 69.653-15.095 60.605-51.156-1.313-5.227-7.05-14.168-12.747-19.865-8.68-8.68-13.324-10.361-28.621-10.361-14.825 0-20.352 1.869-29.364 9.921Zm513.926 2.345c-10.008 10.009-12.266 15.024-12.266 27.24 0 20.272 7.868 34.033 23.768 41.581 37.861 17.967 76.786-21.965 57.593-59.083-7.591-14.68-20.937-22.004-40.105-22.004-14.208 0-18.567 1.843-28.99 12.266Zm-479.846-2.886c4.322 1.66 4.784 3.767 1.973 9.02-4.387 8.197-15.229 8.944-21.427 1.479-4.34-5.228-3.287-6.22 13.205-12.436.335-.123 3.146.747 6.249 1.937Zm528.011 5.935c6.072 4.86 5.679 8.72-1.161 11.343-8.27 3.175-19.584-4.106-19.584-12.598 0-5.935 1.544-6.855 8.118-4.842 4.466 1.367 10.149 4.113 12.627 6.097Zm-30.262 4.528c3.391 8.846-1.483 16.235-10.712 16.235-10.099 0-10.69-2.673-3.016-13.627 6.552-9.358 10.823-10.17 13.728-2.608Zm-661.745 2.706c2.035 2.482 7.926 9.788 13.093 16.235l9.395 11.726H32.945c-12.523 0-17.891-5.383-21.034-21.088-2.37-11.856 2.316-15.337 9.25-6.873Zm186.393 1.804c7.851 10.34 6.296 19.623-3.059 18.292-8.241-1.176-12.162-10.052-8.573-19.403 2.634-6.866 5.806-6.563 11.632 1.111Zm-45.488 15.773c0 3.727-.678 6.776-1.508 6.776s-4.077.985-7.216 2.19c-4.408 1.692-5.707-.227-5.707-8.417 0-5.838 1.068-11.679 2.374-12.985 3.705-3.705 12.057 4.91 12.057 12.436Zm565.761 4.07c-1.234 12.801-8.691 15.651-14.958 5.715-4.366-6.924 2.201-17.44 10.892-17.44 3.691 0 4.871 3.398 4.066 11.725Zm-542.295-4.484c1.237 1.998-.361 4.636-3.55 5.859-6.906 2.648-10.755-.271-7.436-5.643 2.994-4.849 8.063-4.946 10.986-.216Zm515.925 0c1.238 1.998-.361 4.636-3.55 5.859-6.905 2.648-10.755-.271-7.436-5.643 2.995-4.849 8.064-4.946 10.986-.216Zm-20.236 12.144c3.842 4.632 2.089 16.693-2.428 16.693-4.225 0-15.233-12.14-15.233-16.794 0-6.336 12.379-6.264 17.661.101Zm-472.252 5.105c0 4.196-12.159 15.196-16.795 15.196-5.812 0-6.447-11.394-.942-16.899 3.76-3.76 17.737-2.417 17.737 1.703Zm-38.179-.653c5.931 2.276 8.139 19.457 2.5 19.457-1.764 0-7.042-3.215-11.725-7.144-7.27-6.093-7.725-7.674-3.107-10.766 6.502-4.358 5.376-4.217 12.332-1.547Zm539.9 7.104c3.911 4.715 3.835 6.248-.458 8.965-6.249 3.954-22.441 4.496-20.381.682.801-1.486 2.471-5.545 3.705-9.02 2.796-7.85 10.892-8.146 17.134-.627Z" fill="#fff" stroke="#000" stroke-width="4" mask="url(#a)"/></svg>