<svg width="339" height="256" fill="none" xmlns="http://www.w3.org/2000/svg"><mask id="a" fill="#fff"><path fill-rule="evenodd" clip-rule="evenodd" d="M116.974.995C94.246 2.916 76.482 6.058 70.315 9.246 64.432 12.29 56.132 23.81 47.629 40.74l-6.587 13.117-9.7 1.327c-14.341 1.962-17.417 3.637-21.546 11.73-5.526 10.83-4.913 14.35 3.135 18.008 3.784 1.72 7.159 3.293 7.502 3.498.343.206-4.113 5.959-9.904 12.784L0 113.616l1.19 30.211c.657 16.617 1.193 46.24 1.193 65.831v35.618l5.362 5.362C12.888 255.782 13.79 256 29.849 256c24.32 0 31.234-4.89 31.234-22.099v-7.251l7.796.059c4.288.031 9.399 1.269 11.356 2.751 1.96 1.481 5.88 2.693 8.713 2.693 5.018 0 12.491-5.486 12.491-9.172 0-3.69 6-1.691 11.006 3.669 3.573 3.825 6.875 5.503 10.824 5.503 5.493 0 13.023-5.303 13.023-9.172 0-1.185 20.746-1.834 58.569-1.834 49.614 0 58.988.42 61.319 2.752 1.723 1.722 6.232 2.751 12.056 2.751h9.302v7.251c0 17.209 6.914 22.099 31.234 22.099 16.058 0 16.96-.218 22.104-5.362l5.362-5.362v-35.618c0-19.591.535-49.214 1.192-65.831l1.191-30.211-10.53-12.413c-5.791-6.826-10.246-12.578-9.903-12.784.343-.205 3.72-1.779 7.502-3.498 8.048-3.657 8.66-7.178 3.135-18.008-4.129-8.093-7.205-9.768-21.546-11.73l-9.701-1.327-6.592-13.117c-9.174-18.25-16.361-28.226-22.701-31.504-10.169-5.259-39.725-8.34-87.051-9.08-25.223-.392-54.14-.014-64.26.84Zm116.539 9.402c9.585 1.012 20.354 2.604 23.935 3.542 11.357 2.968 20.442 15.473 35.025 48.203 9.717 21.807 9.93 22.136 26.967 41.626l11.636 13.31-1.215 23.144c-1.377 26.23-3.907 49.862-6.768 63.2l-1.947 9.074-4.51-5.763c-2.482-3.172-8.374-8.035-13.092-10.81l-8.58-5.043H43.656l-8.58 5.043c-4.717 2.775-10.61 7.638-13.091 10.81l-4.51 5.763-1.947-9.074c-2.86-13.336-5.391-36.968-6.767-63.189l-1.214-23.129 6.09-7.138c3.35-3.924 9.856-11.346 14.458-16.491 5.705-6.378 11.441-16.304 18.023-31.184 10.36-23.425 20.43-39.734 27.805-45.038 12.67-9.107 101.952-12.945 159.59-6.857Zm-100.89 5.486c-19.674.622-39.219 2.09-43.432 3.26-9.45 2.623-15.024 9.01-24.757 28.37-6.556 13.04-7.073 14.972-4.51 16.845 3.19 2.333 56.206 4.527 109.386 4.527 53.18 0 106.197-2.194 109.387-4.527 2.563-1.873 2.046-3.804-4.51-16.845-9.389-18.674-15.323-25.694-23.823-28.189-3.719-1.09-20.382-2.375-37.029-2.856-16.647-.48-33.569-1.062-37.604-1.295-4.036-.233-23.434.088-43.108.71Zm98.718 8.904c9.4.91 18.958 2.878 21.242 4.375 4.595 3.01 18.23 27.503 16.355 29.377-1.546 1.547-197.71 1.547-199.256 0-1.906-1.905 11.799-26.39 16.495-29.469 2.359-1.546 10.68-3.42 18.488-4.166 20.631-1.97 106.7-2.048 126.676-.117ZM35.401 65.3c0 3.254-7.317 16.436-9.122 16.436-3.852 0-11.056-4.43-11.056-6.798 0-4.648 8.717-11.546 14.593-11.546 3.072 0 5.585.859 5.585 1.908Zm283.493 2.596c2.476 2.476 4.503 5.644 4.503 7.042 0 2.368-7.203 6.798-11.056 6.798-1.805 0-9.122-13.182-9.122-16.436 0-3.804 11.116-1.965 15.675 2.596ZM58.084 83.448c-8.398 2.053-16.072 8.143-22.512 17.865-10.463 15.798-11.74 15.275 37.234 15.275h42.91l2.949-7.374c1.624-4.056 2.952-9.834 2.952-12.84v-5.467h95.387v5.466c0 3.007 1.328 8.785 2.951 12.841l2.95 7.374h42.91c39.765 0 42.907-.237 42.907-3.234 0-5.367-12.193-21.746-19.629-26.369l-6.969-4.333-109.145-.304c-60.03-.169-111.733.326-114.896 1.1Zm56.195 10.854c0 1.868-.906 5.995-2.014 9.172l-2.014 5.777H75.578c-19.07 0-34.673-.721-34.673-1.602 0-.88 3.696-5.008 8.214-9.172l8.212-7.57h28.475c26.485 0 28.473.237 28.473 3.395Zm170.635-.227c5.142 3.603 12.657 11.74 12.743 13.8.033.756-15.544 1.376-34.614 1.376H228.37l-2.015-5.777c-4.486-12.872-5.117-12.567 26.01-12.567 23.581 0 28.743.502 32.549 3.168Zm6.116 105.208c6.681 1.857 23.195 14.976 23.195 18.428 0 .881-11.398 1.602-25.33 1.602-19.432 0-26.16-.628-28.892-2.693-2.955-2.236-13.699-2.71-63.177-2.783l-59.617-.092-4.32-4.553c-5.578-5.881-13.097-5.868-20.11.032-6.795 5.717-9.295 5.712-14.743-.032-5.66-5.967-13.675-5.987-19.61-.051-2.476 2.476-4.503 5.778-4.503 7.338 0 2.415-3.65 2.834-24.764 2.834-13.62 0-24.764-.659-24.764-1.462 0-3.22 14.618-15.466 21.306-17.851 5.775-2.058 29.042-2.551 122.692-2.61 76.693-.046 117.944.591 122.637 1.893ZM93.023 216.178c1.456 2.309 1.183 3.815-1.103 6.103-3.993 3.993-8.825 1.981-8.825-3.675 0-6.825 6.198-8.34 9.928-2.428Zm34.853 0c1.456 2.309 1.183 3.815-1.103 6.103-3.993 3.993-8.825 1.981-8.825-3.675 0-6.825 6.198-8.34 9.928-2.428Zm-94.309 10.889 19.261.5.572 5.931c.424 4.384-.633 7.137-4.043 10.547-4.118 4.119-6.115 4.618-18.459 4.618-17.957 0-21.178-2.704-21.178-17.777 0-8.761.369-9.948 2.293-7.38 1.838 2.453 6.11 3.159 21.554 3.561Zm295.333 4.169c0 14.831-3.259 17.427-21.878 17.427-13.611 0-14.793-.318-18.434-4.948-2.491-3.166-3.694-6.961-3.344-10.547l.549-5.601 19.802-.521c15.353-.405 20.031-1.126 20.833-3.21 1.836-4.789 2.472-2.887 2.472 7.4Z"/></mask><path fill-rule="evenodd" clip-rule="evenodd" d="M116.974.995C94.246 2.916 76.482 6.058 70.315 9.246 64.432 12.29 56.132 23.81 47.629 40.74l-6.587 13.117-9.7 1.327c-14.341 1.962-17.417 3.637-21.546 11.73-5.526 10.83-4.913 14.35 3.135 18.008 3.784 1.72 7.159 3.293 7.502 3.498.343.206-4.113 5.959-9.904 12.784L0 113.616l1.19 30.211c.657 16.617 1.193 46.24 1.193 65.831v35.618l5.362 5.362C12.888 255.782 13.79 256 29.849 256c24.32 0 31.234-4.89 31.234-22.099v-7.251l7.796.059c4.288.031 9.399 1.269 11.356 2.751 1.96 1.481 5.88 2.693 8.713 2.693 5.018 0 12.491-5.486 12.491-9.172 0-3.69 6-1.691 11.006 3.669 3.573 3.825 6.875 5.503 10.824 5.503 5.493 0 13.023-5.303 13.023-9.172 0-1.185 20.746-1.834 58.569-1.834 49.614 0 58.988.42 61.319 2.752 1.723 1.722 6.232 2.751 12.056 2.751h9.302v7.251c0 17.209 6.914 22.099 31.234 22.099 16.058 0 16.96-.218 22.104-5.362l5.362-5.362v-35.618c0-19.591.535-49.214 1.192-65.831l1.191-30.211-10.53-12.413c-5.791-6.826-10.246-12.578-9.903-12.784.343-.205 3.72-1.779 7.502-3.498 8.048-3.657 8.66-7.178 3.135-18.008-4.129-8.093-7.205-9.768-21.546-11.73l-9.701-1.327-6.592-13.117c-9.174-18.25-16.361-28.226-22.701-31.504-10.169-5.259-39.725-8.34-87.051-9.08-25.223-.392-54.14-.014-64.26.84Zm116.539 9.402c9.585 1.012 20.354 2.604 23.935 3.542 11.357 2.968 20.442 15.473 35.025 48.203 9.717 21.807 9.93 22.136 26.967 41.626l11.636 13.31-1.215 23.144c-1.377 26.23-3.907 49.862-6.768 63.2l-1.947 9.074-4.51-5.763c-2.482-3.172-8.374-8.035-13.092-10.81l-8.58-5.043H43.656l-8.58 5.043c-4.717 2.775-10.61 7.638-13.091 10.81l-4.51 5.763-1.947-9.074c-2.86-13.336-5.391-36.968-6.767-63.189l-1.214-23.129 6.09-7.138c3.35-3.924 9.856-11.346 14.458-16.491 5.705-6.378 11.441-16.304 18.023-31.184 10.36-23.425 20.43-39.734 27.805-45.038 12.67-9.107 101.952-12.945 159.59-6.857Zm-100.89 5.486c-19.674.622-39.219 2.09-43.432 3.26-9.45 2.623-15.024 9.01-24.757 28.37-6.556 13.04-7.073 14.972-4.51 16.845 3.19 2.333 56.206 4.527 109.386 4.527 53.18 0 106.197-2.194 109.387-4.527 2.563-1.873 2.046-3.804-4.51-16.845-9.389-18.674-15.323-25.694-23.823-28.189-3.719-1.09-20.382-2.375-37.029-2.856-16.647-.48-33.569-1.062-37.604-1.295-4.036-.233-23.434.088-43.108.71Zm98.718 8.904c9.4.91 18.958 2.878 21.242 4.375 4.595 3.01 18.23 27.503 16.355 29.377-1.546 1.547-197.71 1.547-199.256 0-1.906-1.905 11.799-26.39 16.495-29.469 2.359-1.546 10.68-3.42 18.488-4.166 20.631-1.97 106.7-2.048 126.676-.117ZM35.401 65.3c0 3.254-7.317 16.436-9.122 16.436-3.852 0-11.056-4.43-11.056-6.798 0-4.648 8.717-11.546 14.593-11.546 3.072 0 5.585.859 5.585 1.908Zm283.493 2.596c2.476 2.476 4.503 5.644 4.503 7.042 0 2.368-7.203 6.798-11.056 6.798-1.805 0-9.122-13.182-9.122-16.436 0-3.804 11.116-1.965 15.675 2.596ZM58.084 83.448c-8.398 2.053-16.072 8.143-22.512 17.865-10.463 15.798-11.74 15.275 37.234 15.275h42.91l2.949-7.374c1.624-4.056 2.952-9.834 2.952-12.84v-5.467h95.387v5.466c0 3.007 1.328 8.785 2.951 12.841l2.95 7.374h42.91c39.765 0 42.907-.237 42.907-3.234 0-5.367-12.193-21.746-19.629-26.369l-6.969-4.333-109.145-.304c-60.03-.169-111.733.326-114.896 1.1Zm56.195 10.854c0 1.868-.906 5.995-2.014 9.172l-2.014 5.777H75.578c-19.07 0-34.673-.721-34.673-1.602 0-.88 3.696-5.008 8.214-9.172l8.212-7.57h28.475c26.485 0 28.473.237 28.473 3.395Zm170.635-.227c5.142 3.603 12.657 11.74 12.743 13.8.033.756-15.544 1.376-34.614 1.376H228.37l-2.015-5.777c-4.486-12.872-5.117-12.567 26.01-12.567 23.581 0 28.743.502 32.549 3.168Zm6.116 105.208c6.681 1.857 23.195 14.976 23.195 18.428 0 .881-11.398 1.602-25.33 1.602-19.432 0-26.16-.628-28.892-2.693-2.955-2.236-13.699-2.71-63.177-2.783l-59.617-.092-4.32-4.553c-5.578-5.881-13.097-5.868-20.11.032-6.795 5.717-9.295 5.712-14.743-.032-5.66-5.967-13.675-5.987-19.61-.051-2.476 2.476-4.503 5.778-4.503 7.338 0 2.415-3.65 2.834-24.764 2.834-13.62 0-24.764-.659-24.764-1.462 0-3.22 14.618-15.466 21.306-17.851 5.775-2.058 29.042-2.551 122.692-2.61 76.693-.046 117.944.591 122.637 1.893ZM93.023 216.178c1.456 2.309 1.183 3.815-1.103 6.103-3.993 3.993-8.825 1.981-8.825-3.675 0-6.825 6.198-8.34 9.928-2.428Zm34.853 0c1.456 2.309 1.183 3.815-1.103 6.103-3.993 3.993-8.825 1.981-8.825-3.675 0-6.825 6.198-8.34 9.928-2.428Zm-94.309 10.889 19.261.5.572 5.931c.424 4.384-.633 7.137-4.043 10.547-4.118 4.119-6.115 4.618-18.459 4.618-17.957 0-21.178-2.704-21.178-17.777 0-8.761.369-9.948 2.293-7.38 1.838 2.453 6.11 3.159 21.554 3.561Zm295.333 4.169c0 14.831-3.259 17.427-21.878 17.427-13.611 0-14.793-.318-18.434-4.948-2.491-3.166-3.694-6.961-3.344-10.547l.549-5.601 19.802-.521c15.353-.405 20.031-1.126 20.833-3.21 1.836-4.789 2.472-2.887 2.472 7.4Z" fill="#fff" stroke="#000" stroke-width="4" mask="url(#a)"/></svg>