<svg version="1.0" xmlns="http://www.w3.org/2000/svg" viewBox="0 0 256 256"><g stroke-width="0"><path fill="#fff" d="M99 32.7c-13.8.8-35.5 3.5-39.1 4.9-2.1.9-5 2.9-6.4 4.6-3.4 4-13.6 24.6-17.1 34.5-2.8 8.1-3 8.3-6.1 8.3-2.9 0-3.3-.3-3.3-2.8 0-3.7-2.6-7.2-5.3-7.2-3.2 0-17.9 5-19.9 6.8-1.3 1-1.8 3-1.8 6.2 0 6.8 1.6 7.9 12.5 8.2l9 .3-7.6 6.2C1.1 113.1 0 118.7 0 170.4c.1 38.4.3 40 5.1 47 4.1 6 6.1 6.6 21.7 6.6 12.8 0 14.2-.2 17.3-2.3 3.9-2.6 8.9-11.6 8.9-16.1v-3.1h150v2.5c0 4.1 4.4 12.3 8.5 15.8l3.7 3.3 15-.3 15-.3 3.9-4.3c6.9-7.9 7.1-9.1 6.7-53.9-.4-38.8-.5-40-2.9-47.8-2.3-7.8-2.6-8.1-10.3-14.5l-7.8-6.5 9.6-.5c11-.6 11.6-1 11.6-8.1 0-3.1-.6-5.1-1.7-6.1-2.1-1.8-16.8-6.8-20-6.8-2.7 0-5.3 3.5-5.3 7.2 0 2.5-.3 2.8-3.4 2.8s-3.5-.4-4.2-3.3c-1.5-7.1-11.5-28.4-18.5-39.5-3.2-5.1-12.5-7.1-42.4-9.2-12.8-.9-48.1-1.1-61.5-.3zM164.5 44c6.6.5 15.7 1.5 20.3 2.1 9.2 1.2 8.9 1 15.5 12.9 3.4 6.2 10.7 23.3 10.7 25.1 0 .5-36.3.9-83 .9-45.6 0-83-.2-83-.5 0-3.1 13.2-31.1 16.6-35.2 1.6-2 3.7-2.5 14.9-3.8 7.2-.8 15-1.6 17.5-1.8 10.5-.8 59.5-.6 70.5.3zm59.9 58.1c4.3 3.4 7.4 6.5 6.9 6.9-.4.4-4.4 1.7-8.8 2.9-10.3 2.8-26.9 11-31.7 15.6-6.6 6.3-4.9 9.8 6.7 13.5 11.4 3.6 31.6 3.8 45.3.3 2.3-.5 2.3-.5 2 9.7l-.3 10.3-19.5 4.2c-10.7 2.2-20.8 4.8-22.5 5.7-3.7 2-8.9 7.4-14.4 15l-4.2 5.8H73l-7-8.8c-9-11.4-12-13.1-32-17.2-8.5-1.7-17.2-3.6-19.2-4.1l-3.8-1V151c0-5.5.3-10 .8-10 .4 0 4.3.7 8.7 1.5 10.4 1.9 23.6 1.9 32.3 0 11.8-2.4 16.2-5 16.2-9.5 0-5.5-17.9-16.1-35.8-21.3-4.5-1.3-8.4-2.6-8.7-2.9-.3-.3 2.9-3.3 7.1-6.7l7.7-6.1h177.4l7.7 6.1zM29 121.7c4.7 1.3 11.9 4 16 5.9 6.2 3 7.1 3.7 5.5 4.4-6.5 2.4-21.8 1.9-34.3-1.2l-4.4-1.1.7-4.5c1.2-8.2.5-8 16.5-3.5zm213.9 0c1.5 5.2 1.4 8-.4 8.6-4.3 1.7-23.6 3.8-29 3.1-10.7-1.2-10.9-1.8-2.5-5.7 7-3.3 23.2-8.4 30.2-9.6.4 0 1.2 1.6 1.7 3.6zM30 176.1c8.5 1.7 16.7 3.8 18.2 4.5 3 1.5 7.3 5.8 9 8.8.9 1.7.6 1.8-6.4 1.1-14.9-1.4-37.5-6.5-38.9-8.7-.5-.7-.9-3.2-.9-5.6 0-3.7.3-4.3 1.8-3.8.9.2 8.7 1.9 17.2 3.7zm215 .9c0 3.7-.4 5.2-1.7 5.9-4.6 2.4-39.7 8.8-43.8 7.9-1.3-.2-.9-1.2 2-4.6 2-2.3 4.6-4.7 5.8-5.4 1.6-.8 32.4-8.1 37-8.7.4-.1.7 2.1.7 4.9zM16.5 195.1c2.2.7 9 2.2 15 3.4l11 2.2-.3 3.2c-.1 1.8-.9 4.6-1.7 6.2l-1.6 2.9H15l-2-3.3c-1.4-2.3-2-5-2-9.5 0-3.4.3-6.2.8-6.2.4 0 2.5.5 4.7 1.1zm228.5 5.1c0 4.5-.6 7.2-2 9.6l-2 3.3-11.7-.3-11.7-.3-1.7-3c-1-1.7-1.9-4.3-2.1-5.9l-.3-2.9 11-2.2c6.1-1.3 12.6-2.7 14.5-3.3 6-1.7 6-1.7 6 5z"/><path fill="#fff" d="M110.5 129.4c-27.2 4.5-46.4 17.4-46.5 31.4 0 7 4.4 13.7 11.5 17.5 3.9 2.2 4.8 2.2 52.5 2.2s48.6 0 52.5-2.2c7.2-3.8 11.5-10.5 11.5-17.8 0-11.6-15.2-23.6-36.9-29.2-12-3-32.6-3.9-44.6-1.9zm43.4 12.5c9.9 2.9 18.8 7.4 23.4 11.9 3.3 3.2 3.8 4.2 3.5 7.7-.2 3.2-.9 4.4-3.6 6.2-1.8 1.2-5.6 2.5-8.5 2.8-2.9.4-23.2.5-45.2.3-35.9-.3-40.3-.5-43.2-2.1-6.2-3.3-7-8.7-2.2-14.2 4.3-4.9 17.5-11.2 28.4-13.5 12.4-2.7 36.4-2.2 47.4.9z"/></g></svg>
